<svg width="61" height="15" viewBox="0 0 61 15" fill="none" xmlns="http://www.w3.org/2000/svg">
<path d="M59.4684 7.32192C59.6726 7.63997 59.8206 8.01768 59.9125 8.45504C60.0043 8.8924 60.0447 9.30989 60.0337 9.70751C60.0303 10.622 59.7966 11.407 59.3326 12.0624C58.8686 12.7177 58.3266 13.0662 57.7068 13.1077C56.6587 13.1477 55.7398 12.7201 54.9502 11.8248C54.1606 10.9295 53.492 9.84658 52.9446 8.57592C52.7967 8.17833 52.6615 7.80062 52.5392 7.44279C52.4168 7.08497 52.2214 6.90608 51.953 6.90614C51.6309 6.90622 51.362 7.11463 51.1464 7.53139C50.9307 7.94814 50.7363 8.35614 50.5631 8.75539C49.905 9.98816 49.1643 11.0722 48.341 12.0076C47.5177 12.943 46.5825 13.4299 45.5355 13.4683C44.4874 13.5083 43.569 13.0815 42.7804 12.1878C41.9918 11.2942 41.3228 10.2104 40.7733 8.93656C40.6254 8.53897 40.4836 8.15093 40.3479 7.77243C40.2123 7.39392 40.0108 7.2055 39.7434 7.20715C39.4213 7.20723 39.159 7.42598 38.9567 7.8634C38.7543 8.30083 38.566 8.71837 38.3918 9.11603C37.7337 10.3488 36.9936 11.4321 36.1714 12.3659C35.3492 13.2997 34.4135 13.7874 33.3642 13.829C32.3161 13.869 31.3977 13.4421 30.6091 12.5485C29.8205 11.6548 29.1514 10.571 28.602 9.2972C28.4541 8.89962 28.3128 8.51237 28.1782 8.13545C28.0435 7.75854 27.8415 7.56932 27.5721 7.56779C27.2499 7.56787 26.9877 7.78662 26.7854 8.22405C26.583 8.66147 26.3947 9.07901 26.2205 9.47667C25.5624 10.7094 24.8161 11.7832 23.9817 12.6979C23.1473 13.6126 22.2049 14.09 21.1546 14.13C20.1064 14.17 19.1876 13.7423 18.3979 12.8471C17.6083 11.9518 16.9398 10.8689 16.3924 9.59821C16.2445 9.20062 16.1027 8.81258 15.967 8.43408C15.8314 8.05557 15.6299 7.86715 15.3625 7.8688C15.0403 7.86887 14.7781 8.08763 14.5758 8.52506C14.3734 8.96248 14.1851 9.38002 14.0109 9.77768C13.3528 11.0104 12.6055 12.0842 11.7689 12.9989C10.9323 13.9136 9.99101 14.391 8.945 14.431C7.89685 14.471 6.97796 14.0434 6.18835 13.1481C5.39873 12.2528 4.7302 11.1699 4.18277 9.89921C4.03486 9.50163 3.88684 9.12393 3.73869 8.76611C3.59054 8.40828 3.38119 8.2294 3.11062 8.22946C2.49193 8.26937 1.97173 7.96093 1.55002 7.30416C1.12831 6.64739 0.919659 5.86254 0.924075 4.94961C0.927471 4.03508 1.16174 3.24934 1.62689 2.59236C2.09204 1.93539 2.6334 1.58775 3.25095 1.54944C4.29911 1.50943 5.22481 1.92593 6.02805 2.79892C6.83128 3.6719 7.50707 4.74611 8.05542 6.02155C8.20333 6.41913 8.3446 6.80638 8.47923 7.18329C8.61386 7.5602 8.8159 7.74942 9.08534 7.75095C9.40745 7.75088 9.66968 7.53213 9.87203 7.0947C10.0744 6.65727 10.2627 6.23974 10.4369 5.84208C11.095 4.60931 11.8418 3.53477 12.6774 2.61847C13.5129 1.70216 14.4547 1.2256 15.5028 1.18878C16.5509 1.14877 17.4693 1.5756 18.2579 2.46927C19.0465 3.36294 19.7155 4.4467 20.265 5.72054C20.4129 6.11813 20.5481 6.49583 20.6705 6.85366C20.7928 7.21149 20.9882 7.39037 21.2567 7.39031C21.5788 7.39024 21.8471 7.18103 22.0617 6.76269C22.2763 6.34434 22.4712 5.93714 22.6465 5.54107C23.3046 4.3083 24.0453 3.22422 24.8686 2.28883C25.6919 1.35345 26.6271 0.866548 27.6741 0.828137C28.6941 0.827902 29.6057 1.26428 30.409 2.13727C31.2122 3.01025 31.888 4.08446 32.4363 5.3599C32.5842 5.75748 32.7261 6.12565 32.862 6.46439C32.9979 6.80313 33.2006 6.97167 33.4702 6.97002C33.7923 6.96994 34.0539 6.77028 34.255 6.37103C34.4561 5.97177 34.6437 5.5749 34.8178 5.18042C35.4759 3.94766 36.2166 2.86358 37.0399 1.92819C37.8632 0.992808 38.7984 0.505902 39.8454 0.467492C40.8936 0.427491 41.8186 0.864662 42.6204 1.779C43.4223 2.69334 44.0975 3.78664 44.6459 5.05889C44.7938 5.45647 44.9363 5.82384 45.0733 6.16099C45.2103 6.49814 45.4125 6.66748 45.6798 6.66901C46.0019 6.66894 46.2574 6.45973 46.4462 6.04139C46.6351 5.62306 46.816 5.21585 46.9891 4.81978C47.6472 3.58701 48.394 2.51248 49.2296 1.59618C50.0652 0.679871 51.007 0.203307 52.055 0.166486C53.1032 0.126484 54.0215 0.553316 54.8101 1.44698C55.5987 2.34065 56.2678 3.42441 56.8172 4.69825C56.9652 5.09583 57.1076 5.4632 57.2446 5.80035C57.3817 6.1375 57.5838 6.30684 57.8511 6.30837C58.1732 6.30829 58.4725 6.39809 58.7489 6.57775C59.0254 6.75741 59.2652 7.00547 59.4684 7.32192Z" fill="#3A3A38"/>
</svg>
