<svg width="43" height="43" viewBox="0 0 43 43" fill="none" xmlns="http://www.w3.org/2000/svg">
<g clip-path="url(#clip0_13_70)">
<path d="M38.2222 33.4445H4.77777V25.4656C3.88821 25.0395 3.07979 24.4614 2.38889 23.7575V33.4445C2.38889 34.078 2.64057 34.6856 3.08857 35.1337C3.53658 35.5817 4.1442 35.8333 4.77777 35.8333H38.2222C38.8558 35.8333 39.4634 35.5817 39.9114 35.1337C40.3594 34.6856 40.6111 34.078 40.6111 33.4445V23.7575C39.9253 24.4642 39.1156 25.0391 38.2222 25.4536V33.4445Z" fill="#C4AF65"/>
<path d="M29.8611 26.7556C30.1779 26.7556 30.4817 26.6298 30.7057 26.4058C30.9297 26.1818 31.0556 25.8779 31.0556 25.5612V19.0395H28.6667V21.5H16.7222V23.8889H28.6667V25.5612C28.6667 25.8779 28.7925 26.1818 29.0165 26.4058C29.2405 26.6298 29.5443 26.7556 29.8611 26.7556Z" fill="#C4AF65"/>
<path d="M39.4167 7.16668H28.6667V5.23168C28.6541 4.46712 28.3391 3.7387 27.7906 3.20589C27.2421 2.67309 26.5049 2.37932 25.7403 2.3889H17.2597C16.4951 2.37932 15.7579 2.67309 15.2094 3.20589C14.6609 3.7387 14.3459 4.46712 14.3333 5.23168V7.16668H3.58333C3.26654 7.16668 2.96273 7.29252 2.73873 7.51652C2.51473 7.74052 2.38889 8.04433 2.38889 8.36112V17.9167C2.38889 19.5006 3.0181 21.0197 4.13811 22.1397C5.25812 23.2597 6.77718 23.8889 8.36111 23.8889H11.9444V25.5611C11.9444 25.8779 12.0703 26.1817 12.2943 26.4057C12.5183 26.6297 12.8221 26.7556 13.1389 26.7556C13.4557 26.7556 13.7595 26.6297 13.9835 26.4057C14.2075 26.1817 14.3333 25.8779 14.3333 25.5611V19.0395H11.9444V21.5H8.36111C7.41075 21.5 6.49931 21.1225 5.82731 20.4505C5.1553 19.7785 4.77777 18.867 4.77777 17.9167V9.55557H38.2222V17.9167C38.2222 18.867 37.8447 19.7785 37.1727 20.4505C36.5007 21.1225 35.5892 21.5 34.6389 21.5H33.4444V23.8889H34.6389C36.2228 23.8889 37.7419 23.2597 38.8619 22.1397C39.9819 21.0197 40.6111 19.5006 40.6111 17.9167V8.36112C40.6111 8.04433 40.4853 7.74052 40.2613 7.51652C40.0373 7.29252 39.7334 7.16668 39.4167 7.16668ZM26.2778 7.16668H16.7222V5.2914C16.7284 5.15303 16.7877 5.02237 16.8879 4.92668C16.988 4.83099 17.1212 4.77765 17.2597 4.77779H25.7522C25.8197 4.7762 25.8868 4.78792 25.9497 4.81228C26.0126 4.83663 26.0701 4.87315 26.1189 4.91973C26.1677 4.96632 26.2069 5.02207 26.2341 5.08379C26.2614 5.14551 26.2762 5.212 26.2778 5.27945V7.16668Z" fill="#C4AF65"/>
</g>
<defs>
<clipPath id="clip0_13_70">
<rect width="43" height="43" fill="white"/>
</clipPath>
</defs>
</svg>
