<svg width="43" height="43" viewBox="0 0 43 43" fill="none" xmlns="http://www.w3.org/2000/svg">
<path d="M25.0833 5.85694C25.0833 4.60098 24.0657 3.58331 22.8097 3.58331H20.1921C18.9343 3.58331 17.9167 4.60098 17.9167 5.85694C17.9167 6.89252 17.2072 7.78119 16.2415 8.16102C16.0892 8.22194 15.9369 8.28644 15.7882 8.35094C14.8368 8.76302 13.7062 8.6376 12.9717 7.90481C12.5453 7.47877 11.9673 7.23945 11.3645 7.23945C10.7618 7.23945 10.1838 7.47877 9.75742 7.90481L7.90483 9.7574C7.4788 10.1837 7.23948 10.7618 7.23948 11.3645C7.23948 11.9672 7.4788 12.5453 7.90483 12.9716C8.63942 13.7062 8.76483 14.835 8.34917 15.7881C8.28386 15.9382 8.22114 16.0893 8.16104 16.2414C7.78121 17.2071 6.89254 17.9166 5.85696 17.9166C4.601 17.9166 3.58333 18.9343 3.58333 20.1903V22.8097C3.58333 24.0656 4.601 25.0833 5.85696 25.0833C6.89254 25.0833 7.78121 25.7928 8.16104 26.7585C8.22196 26.9108 8.28646 27.0631 8.34917 27.2118C8.76304 28.1632 8.63763 29.2937 7.90483 30.0283C7.4788 30.4547 7.23948 31.0327 7.23948 31.6354C7.23948 32.2382 7.4788 32.8162 7.90483 33.2426L9.75742 35.0951C10.1838 35.5212 10.7618 35.7605 11.3645 35.7605C11.9673 35.7605 12.5453 35.5212 12.9717 35.0951C13.7062 34.3606 14.835 34.2351 15.7882 34.649C15.9369 34.7153 16.0892 34.778 16.2415 34.8389C17.2072 35.2188 17.9167 36.1074 17.9167 37.143C17.9167 38.399 18.9343 39.4166 20.1903 39.4166H22.8097C24.0657 39.4166 25.0833 38.399 25.0833 37.143C25.0833 36.1074 25.7928 35.2188 26.7585 34.8371C26.9108 34.778 27.0631 34.7153 27.2118 34.6508C28.1632 34.2351 29.2938 34.3624 30.0265 35.0951C30.2377 35.3064 30.4884 35.4739 30.7643 35.5882C31.0402 35.7026 31.3359 35.7614 31.6346 35.7614C31.9332 35.7614 32.2289 35.7026 32.5049 35.5882C32.7808 35.4739 33.0314 35.3064 33.2426 35.0951L35.0952 33.2426C35.5212 32.8162 35.7605 32.2382 35.7605 31.6354C35.7605 31.0327 35.5212 30.4547 35.0952 30.0283C34.3606 29.2937 34.2352 28.165 34.649 27.2118C34.7153 27.0631 34.778 26.9108 34.839 26.7585C35.2188 25.7928 36.1075 25.0833 37.143 25.0833C38.399 25.0833 39.4167 24.0656 39.4167 22.8097V20.1921C39.4167 18.9361 38.399 17.9184 37.143 17.9184C36.1075 17.9184 35.2188 17.2089 34.8372 16.2432C34.7771 16.091 34.7144 15.9399 34.649 15.7899C34.237 14.8386 34.3624 13.708 35.0952 12.9734C35.5212 12.5471 35.7605 11.969 35.7605 11.3663C35.7605 10.7636 35.5212 10.1855 35.0952 9.75919L33.2426 7.9066C32.8162 7.48057 32.2382 7.24125 31.6355 7.24125C31.0327 7.24125 30.4547 7.48057 30.0283 7.9066C29.2938 8.64119 28.165 8.7666 27.2118 8.35273C27.0618 8.28681 26.9107 8.22349 26.7585 8.16281C25.7928 7.78119 25.0833 6.89073 25.0833 5.85694Z" stroke="#3A3A38" stroke-width="2"/>
<path d="M28.6667 21.5C28.6667 23.4007 27.9116 25.2236 26.5676 26.5676C25.2236 27.9116 23.4007 28.6666 21.5 28.6666C19.5993 28.6666 17.7764 27.9116 16.4324 26.5676C15.0884 25.2236 14.3333 23.4007 14.3333 21.5C14.3333 19.5993 15.0884 17.7764 16.4324 16.4324C17.7764 15.0884 19.5993 14.3333 21.5 14.3333C23.4007 14.3333 25.2236 15.0884 26.5676 16.4324C27.9116 17.7764 28.6667 19.5993 28.6667 21.5Z" stroke="#3A3A38" stroke-width="2"/>
</svg>
