<svg width="43" height="43" viewBox="0 0 43 43" fill="none" xmlns="http://www.w3.org/2000/svg">
<path fill-rule="evenodd" clip-rule="evenodd" d="M7.8389 5.35347C7.31886 5.11973 6.72727 5.10212 6.19425 5.30453C5.66123 5.50693 5.23043 5.91276 4.9966 6.43277L0.346152 16.7592C0.112136 17.2787 0.0939086 17.8699 0.295474 18.4028C0.49704 18.9358 0.901914 19.3669 1.42115 19.6015L4.62465 21.0442C4.882 21.1604 5.15973 21.2248 5.44196 21.2336C5.72419 21.2425 6.00541 21.1957 6.26954 21.0958C6.53368 20.996 6.77557 20.8451 6.98139 20.6518C7.18721 20.4585 7.35294 20.2265 7.4691 19.9692L12.1196 9.64057C12.3536 9.12106 12.3718 8.5299 12.1702 7.99696C11.9687 7.46402 11.5638 7.03289 11.0446 6.79827L7.8389 5.35347ZM4.02695 18.0987C4.20229 18.1777 4.39148 18.2215 4.58372 18.2274C4.77596 18.2334 4.96749 18.2014 5.14737 18.1333C5.32725 18.0652 5.49196 17.9624 5.63209 17.8306C5.77223 17.6989 5.88505 17.5409 5.9641 17.3655C6.04316 17.1902 6.08691 17.001 6.09285 16.8088C6.09879 16.6165 6.0668 16.425 5.99872 16.2451C5.93064 16.0652 5.8278 15.9005 5.69607 15.7604C5.56433 15.6202 5.40629 15.5074 5.23095 15.4284C4.87685 15.2687 4.47382 15.2563 4.11054 15.3937C3.74725 15.5312 3.45346 15.8074 3.2938 16.1615C3.13414 16.5156 3.12169 16.9186 3.25918 17.2819C3.39667 17.6452 3.67285 17.939 4.02695 18.0987ZM40.8823 19.8832C41.1463 19.783 41.388 19.6317 41.5935 19.4381C41.7991 19.2445 41.9645 19.0123 42.0803 18.7547C42.1961 18.4972 42.26 18.2193 42.2684 17.9371C42.2768 17.6548 42.2295 17.3737 42.1293 17.1097L38.1195 6.52307C38.0195 6.25887 37.8684 6.01696 37.6749 5.81117C37.4814 5.60539 37.2492 5.43976 36.9916 5.32375C36.734 5.20774 36.4561 5.14363 36.1738 5.13508C35.8914 5.12653 35.6101 5.17371 35.346 5.27392L32.063 6.51877C31.7989 6.61897 31.5573 6.7702 31.3517 6.96382C31.1461 7.15744 30.9807 7.38966 30.8649 7.64721C30.7491 7.90477 30.6852 8.18261 30.6768 8.46487C30.6684 8.74713 30.7157 9.02828 30.816 9.29227L34.8279 19.881C35.0298 20.4141 35.4352 20.8451 35.9549 21.0794C36.4746 21.3136 37.066 21.3319 37.5992 21.1302L40.8823 19.8832ZM34.5677 8.17642C34.3879 8.24461 34.2232 8.34755 34.0831 8.47937C33.9431 8.61119 33.8303 8.76931 33.7514 8.9447C33.6724 9.12009 33.6288 9.30931 33.6229 9.50157C33.6171 9.69382 33.6492 9.88534 33.7174 10.0652C33.7856 10.245 33.8885 10.4097 34.0203 10.5498C34.1522 10.6898 34.3103 10.8026 34.4857 10.8815C34.661 10.9605 34.8503 11.0041 35.0425 11.01C35.2348 11.0158 35.4263 10.9837 35.6062 10.9155C35.9694 10.7778 36.263 10.5015 36.4225 10.1472C36.582 9.79303 36.5942 9.38997 36.4565 9.02675C36.3188 8.66352 36.0424 8.36987 35.6882 8.2104C35.334 8.05094 34.9309 8.03871 34.5677 8.17642Z" fill="#3A3A38"/>
<path fill-rule="evenodd" clip-rule="evenodd" d="M32.0027 8.83H32.0199C32.1607 8.81771 32.2976 8.77783 32.423 8.71262C32.5483 8.64741 32.6596 8.55816 32.7504 8.44995C32.8413 8.34174 32.9099 8.2167 32.9524 8.08197C32.9949 7.94723 33.0105 7.80544 32.9982 7.6647C32.9859 7.52395 32.946 7.387 32.8808 7.26166C32.8156 7.13633 32.7264 7.02507 32.6182 6.93423C32.5099 6.84339 32.3849 6.77475 32.2502 6.73224C32.1154 6.68972 31.9736 6.67416 31.8329 6.68645H31.8157L31.7598 6.6929L31.5512 6.7144C30.4626 6.81784 29.376 6.94113 28.2919 7.0842C26.3698 7.33575 23.9854 7.72275 22.4266 8.24305C21.6677 8.4946 20.8679 8.98265 20.1046 9.54165C19.2825 10.1528 18.4971 10.8118 17.7525 11.5153C16.3868 12.8041 15.0817 14.1558 13.8417 15.5659C12.9408 16.585 12.7323 18.2104 13.7901 19.3628C14.4781 20.1067 15.5531 21.0484 16.9463 21.4698C18.4018 21.9063 20.0788 21.7364 21.7924 20.4636L23.9402 19.0769C23.9529 19.0686 23.9658 19.0607 23.9789 19.0532C24.2864 19.2403 24.7142 19.5628 25.2259 19.9906C25.7849 20.4593 26.3912 21.0119 26.9567 21.5429C27.5984 22.1479 28.2291 22.7644 28.8487 23.3919L28.9669 23.5145L28.997 23.5446L29.0078 23.5553L29.1346 23.6843L29.2959 23.7682C30.1623 24.1982 31.1148 24.0434 31.8544 23.794C32.6241 23.536 33.3895 23.0974 34.0409 22.6652C34.8572 22.1171 35.6299 21.5069 36.3522 20.8399L36.3909 20.8055L36.4016 20.7947L36.4038 20.7926C36.4038 20.7926 36.2146 20.1261 35.475 19.3478L34.8923 20.0788L34.4 21.4999L29.0078 23.5553L30.1 22.5749L29.5238 21.0334C29.1634 20.6785 28.7993 20.3273 28.4316 19.9799C27.8511 19.4338 27.2104 18.8511 26.6041 18.3459C26.0171 17.8514 25.4065 17.3827 24.897 17.1032C24.0499 16.6388 23.22 16.9828 22.7728 17.273L20.5626 18.7006L20.5325 18.7221C19.3392 19.6165 18.3588 19.6509 17.5655 19.4123C16.7055 19.1543 15.9422 18.5265 15.3725 17.9073C15.194 17.7138 15.1424 17.3418 15.452 16.9914C16.6458 15.633 17.902 14.3309 19.2167 13.0891C19.9498 12.4076 20.6851 11.7776 21.371 11.2767C22.0719 10.765 22.661 10.4317 23.106 10.2834C24.4476 9.8362 26.6428 9.46855 28.5756 9.2127C29.6326 9.07376 30.692 8.95406 31.7533 8.85365L31.9533 8.8343L32.0027 8.83Z" fill="#3A3A38"/>
<path d="M30.373 21.8805C30.0923 21.5959 29.8092 21.3135 29.5238 21.0334L30.1 22.575L29.0078 23.5575L34.4 21.5L34.8923 20.081L35.475 19.35L34.9268 19.2339L34.9203 19.2382L34.8902 19.2661L34.7741 19.3736C34.1683 19.9186 33.5253 20.4207 32.8498 20.8765C32.2693 21.2635 31.6824 21.586 31.1664 21.758C30.7665 21.8934 30.5171 21.9042 30.373 21.8805Z" fill="#3A3A38"/>
<path fill-rule="evenodd" clip-rule="evenodd" d="M10.851 10.8962L10.4275 9.90718L10.0039 8.91818L10.0899 8.88378L10.3329 8.78058C11.5249 8.27442 12.7218 7.77989 13.9234 7.29708C14.8993 6.90311 15.8827 6.52822 16.8732 6.17263C17.3096 6.01783 17.716 5.88453 18.0557 5.78778C18.3481 5.70178 18.7222 5.60718 19.0275 5.60718C19.307 5.60718 19.6015 5.67168 19.8445 5.73618C20.1068 5.80713 20.3949 5.90173 20.6873 6.00923C21.2764 6.22423 21.9407 6.50373 22.5556 6.77463C23.2728 7.09516 23.9839 7.42919 24.6884 7.77653L24.8303 7.84533L24.869 7.86468L24.8819 7.87113C25.1371 7.99857 25.3312 8.22216 25.4215 8.49271C25.5118 8.76326 25.491 9.05861 25.3635 9.31378C25.2361 9.56895 25.0125 9.76304 24.742 9.85336C24.4714 9.94368 24.1761 9.92282 23.9209 9.79538L23.9101 9.78893L23.8757 9.77173L23.7424 9.70723C23.0612 9.37212 22.3738 9.04956 21.6806 8.73973C21.1131 8.48426 20.5373 8.24763 19.9541 8.03023C19.7358 7.94918 19.5142 7.87745 19.2898 7.81523C19.2058 7.79101 19.1204 7.77234 19.0339 7.75933L19.0146 7.76363C18.9716 7.77008 18.8576 7.79373 18.6448 7.85393C18.2889 7.95904 17.9362 8.07447 17.587 8.20008C16.7528 8.49463 15.7272 8.89238 14.7232 9.29443C13.535 9.77032 12.3517 10.2584 11.1735 10.7586L10.9349 10.8596L10.851 10.8962ZM9.4385 10.3307C9.32659 10.0687 9.3233 9.77296 9.42932 9.5085C9.53535 9.24404 9.74203 9.03249 10.0039 8.92033L10.4275 9.90933L10.851 10.8962C10.7212 10.9519 10.5816 10.9815 10.4403 10.9833C10.299 10.985 10.1587 10.9589 10.0275 10.9063C9.89633 10.8538 9.77677 10.7759 9.6757 10.6772C9.57463 10.5784 9.49402 10.4607 9.4385 10.3307ZM5.34705 18.8447C5.44401 18.7421 5.56025 18.6595 5.68913 18.6018C5.81801 18.5441 5.957 18.5123 6.09816 18.5083C6.23932 18.5043 6.37988 18.5282 6.51182 18.5785C6.64376 18.6289 6.76448 18.7047 6.8671 18.8017L6.1275 19.5822L5.39005 20.3648C5.28738 20.2678 5.20483 20.1516 5.14711 20.0227C5.08938 19.8938 5.05762 19.7548 5.05362 19.6137C5.04963 19.4725 5.07349 19.3319 5.12383 19.2C5.17418 19.0681 5.25003 18.9473 5.34705 18.8447ZM15.1725 26.1268L21.113 28.3542C21.6927 28.5714 22.3227 28.6172 22.9278 28.486C23.5328 28.3549 24.0873 28.0523 24.525 27.6146L29.0185 23.1211C29.2204 22.9195 29.4941 22.8064 29.7793 22.8066C30.0646 22.8068 30.3381 22.9203 30.5397 23.1222C30.7412 23.324 30.8544 23.5977 30.8542 23.8829C30.854 24.1682 30.7405 24.4417 30.5386 24.6433L26.0451 29.1368C25.3152 29.8659 24.3909 30.3696 23.3825 30.5876C22.3741 30.8057 21.3243 30.729 20.3583 30.3666L14.2953 28.094L14.2459 28.0704C13.9172 27.8886 13.605 27.6786 13.3128 27.4426C12.9645 27.1738 12.556 26.8406 12.1152 26.4643C11.1283 25.6207 10.1549 24.7613 9.19555 23.8865C8.02314 22.8215 6.85994 21.7465 5.7061 20.6615L5.47175 20.4422L5.39005 20.3648L6.1275 19.5822L6.8671 18.8017L6.94665 18.877L7.1767 19.0941C8.32165 20.1701 9.47552 21.2365 10.6382 22.2933C11.6272 23.1899 12.6484 24.0993 13.5041 24.826C13.9341 25.1894 14.3147 25.499 14.6221 25.7376C14.9059 25.9548 15.0844 26.0752 15.1725 26.1246M7.8905 30.7192C8.07326 30.5012 8.33495 30.3646 8.61824 30.3392C8.90153 30.3138 9.18334 30.4018 9.40195 30.5837L11.4638 32.3037C11.9259 32.6895 12.4867 32.9382 13.0827 33.0218L15.7401 33.3959C15.8831 33.4116 16.0215 33.4558 16.147 33.5259C16.2726 33.596 16.3828 33.6906 16.4712 33.8041C16.5595 33.9176 16.6242 34.0477 16.6614 34.1866C16.6986 34.3255 16.7075 34.4705 16.6877 34.6129C16.6678 34.7554 16.6196 34.8924 16.5458 35.0158C16.472 35.1393 16.3743 35.2467 16.2582 35.3317C16.1422 35.4167 16.0103 35.4776 15.8704 35.5107C15.7304 35.5438 15.5852 35.5484 15.4434 35.5244L12.7839 35.1525C11.7903 35.0129 10.8557 34.5981 10.0856 33.9549L8.0238 32.2349C7.91526 32.1444 7.82564 32.0333 7.76008 31.9081C7.69451 31.7829 7.65429 31.6459 7.64171 31.5051C7.62913 31.3644 7.64443 31.2225 7.68676 31.0876C7.72908 30.9527 7.79758 30.8275 7.88835 30.7192" fill="#3A3A38"/>
</svg>
