<svg width="43" height="43" viewBox="0 0 43 43" fill="none" xmlns="http://www.w3.org/2000/svg">
<path fill-rule="evenodd" clip-rule="evenodd" d="M21.5 11.1979C19.9557 11.1979 18.4746 11.8114 17.3826 12.9034C16.2906 13.9954 15.6771 15.4765 15.6771 17.0209C15.6771 18.5652 16.2906 20.0463 17.3826 21.1383C18.4746 22.2303 19.9557 22.8438 21.5 22.8438C23.0443 22.8438 24.5254 22.2303 25.6174 21.1383C26.7094 20.0463 27.3229 18.5652 27.3229 17.0209C27.3229 15.4765 26.7094 13.9954 25.6174 12.9034C24.5254 11.8114 23.0443 11.1979 21.5 11.1979ZM18.3646 17.0209C18.3646 16.1893 18.6949 15.3918 19.2829 14.8038C19.8709 14.2158 20.6684 13.8854 21.5 13.8854C22.3316 13.8854 23.1291 14.2158 23.7171 14.8038C24.3051 15.3918 24.6354 16.1893 24.6354 17.0209C24.6354 17.8524 24.3051 18.6499 23.7171 19.2379C23.1291 19.8259 22.3316 20.1563 21.5 20.1563C20.6684 20.1563 19.8709 19.8259 19.2829 19.2379C18.6949 18.6499 18.3646 17.8524 18.3646 17.0209Z" fill="#3A3A38"/>
<path fill-rule="evenodd" clip-rule="evenodd" d="M21.5 4.03125C19.1571 4.03109 16.8578 4.66459 14.8456 5.86465C12.8334 7.06471 11.1833 8.78665 10.0699 10.8481C8.95656 12.9095 8.42147 15.2337 8.52133 17.5745C8.62118 19.9152 9.35226 22.1854 10.6371 24.1445L6.00209 32.1712C5.87342 32.3947 5.8118 32.6506 5.82459 32.9082C5.83738 33.1658 5.92405 33.4143 6.07423 33.624C6.22442 33.8336 6.43178 33.9957 6.67156 34.0907C6.91134 34.1858 7.1734 34.2098 7.42646 34.1599L12.1099 33.239L13.6525 37.754C13.7356 37.9986 13.8875 38.2141 14.09 38.3746C14.2924 38.5351 14.5369 38.6338 14.794 38.659C15.0511 38.6841 15.31 38.6346 15.5398 38.5163C15.7695 38.3981 15.9602 38.2162 16.0892 37.9923L20.7117 29.9871C21.2367 30.0188 21.7633 30.0188 22.2883 29.9871L26.9108 37.9923C27.0399 38.2161 27.2308 38.398 27.4606 38.5161C27.6905 38.6342 27.9495 38.6835 28.2066 38.6582C28.4638 38.6329 28.7081 38.5339 28.9105 38.3732C29.1128 38.2125 29.2646 37.9969 29.3475 37.7522L30.8848 33.2265L35.5718 34.1581C35.8249 34.2084 36.0873 34.1847 36.3273 34.0899C36.5674 33.995 36.7751 33.833 36.9255 33.6232C37.076 33.4134 37.1628 33.1648 37.1756 32.9069C37.1885 32.6491 37.1268 32.3931 36.9979 32.1694L32.3647 24.1445C33.6496 22.1852 34.3807 19.9149 34.4805 17.574C34.5803 15.2331 34.045 12.9088 32.9315 10.8473C31.8179 8.78581 30.1675 7.06389 28.155 5.86396C26.1426 4.66403 23.843 4.03077 21.5 4.03125ZM11.1979 17.0208C11.1979 14.2886 12.2833 11.6682 14.2153 9.73616C16.1473 7.80415 18.7677 6.71875 21.5 6.71875C24.2323 6.71875 26.8527 7.80415 28.7847 9.73616C30.7167 11.6682 31.8021 14.2886 31.8021 17.0208C31.8021 19.7531 30.7167 22.3735 28.7847 24.3055C26.8527 26.2375 24.2323 27.3229 21.5 27.3229C18.7677 27.3229 16.1473 26.2375 14.2153 24.3055C12.2833 22.3735 11.1979 19.7531 11.1979 17.0208ZM17.888 29.5016C15.8501 28.9114 13.9879 27.8305 12.4646 26.3536L9.80938 30.9528L12.7423 30.3759C13.0611 30.3134 13.3917 30.3684 13.6729 30.5308C13.9542 30.6931 14.1672 30.9519 14.2724 31.2592L15.2399 34.0882L17.888 29.5016ZM27.7565 34.0811L25.112 29.5016C27.1499 28.9113 29.0121 27.8305 30.5354 26.3536L33.187 30.9457L30.2523 30.3616C29.9326 30.2983 29.6008 30.3533 29.3186 30.5165C29.0365 30.6796 28.8232 30.9398 28.7186 31.2485L27.7565 34.0811Z" fill="#3A3A38"/>
</svg>
