<svg width="43" height="43" viewBox="0 0 43 43" fill="none" xmlns="http://www.w3.org/2000/svg">
<path d="M21.5 25.9792C23.9738 25.9792 25.9791 23.9738 25.9791 21.5C25.9791 19.0263 23.9738 17.0209 21.5 17.0209C19.0262 17.0209 17.0208 19.0263 17.0208 21.5C17.0208 23.9738 19.0262 25.9792 21.5 25.9792Z" stroke="#3A3A38"/>
<path d="M17.9167 25.0833L11.6458 31.3542M18.8125 18.8125L10.75 10.75" stroke="#3A3A38" stroke-linejoin="round"/>
<path d="M30.4583 33.1459C31.9426 33.1459 33.1458 31.9426 33.1458 30.4584C33.1458 28.9741 31.9426 27.7709 30.4583 27.7709C28.974 27.7709 27.7708 28.9741 27.7708 30.4584C27.7708 31.9426 28.974 33.1459 30.4583 33.1459Z" stroke="#3A3A38"/>
<path d="M35.8333 24.1875C37.3176 24.1875 38.5208 22.9843 38.5208 21.5C38.5208 20.0157 37.3176 18.8125 35.8333 18.8125C34.349 18.8125 33.1458 20.0157 33.1458 21.5C33.1458 22.9843 34.349 24.1875 35.8333 24.1875Z" stroke="#3A3A38"/>
<path d="M33.1458 21.5H25.9791M25.0833 25.0833L28.6666 28.6667" stroke="#3A3A38" stroke-linejoin="round"/>
<path d="M34.0417 13.4375C36.5154 13.4375 38.5208 11.4321 38.5208 8.95835C38.5208 6.48458 36.5154 4.47919 34.0417 4.47919C31.5679 4.47919 29.5625 6.48458 29.5625 8.95835C29.5625 11.4321 31.5679 13.4375 34.0417 13.4375Z" stroke="#3A3A38"/>
<path d="M30.4583 12.5417L25.0833 17.9167" stroke="#3A3A38" stroke-linejoin="round"/>
<path d="M8.95831 11.6459C10.4426 11.6459 11.6458 10.4426 11.6458 8.95837C11.6458 7.47411 10.4426 6.27087 8.95831 6.27087C7.47405 6.27087 6.27081 7.47411 6.27081 8.95837C6.27081 10.4426 7.47405 11.6459 8.95831 11.6459Z" stroke="#3A3A38"/>
<path d="M8.95832 38.5208C11.4321 38.5208 13.4375 36.5154 13.4375 34.0417C13.4375 31.5679 11.4321 29.5625 8.95832 29.5625C6.48455 29.5625 4.47916 31.5679 4.47916 34.0417C4.47916 36.5154 6.48455 38.5208 8.95832 38.5208Z" stroke="#3A3A38"/>
</svg>
