<?xml version="1.0" standalone="no"?>
<!DOCTYPE svg PUBLIC "-//W3C//DTD SVG 20010904//EN"
 "http://www.w3.org/TR/2001/REC-SVG-20010904/DTD/svg10.dtd">
<svg version="1.0" xmlns="http://www.w3.org/2000/svg"
 width="3120.000000pt" height="3120.000000pt" viewBox="0 0 3120.000000 3120.000000"
 preserveAspectRatio="xMidYMid meet">
<metadata>
Created by potrace 1.14, written by Peter Selinger 2001-2017
</metadata>
<g transform="translate(0.000000,3120.000000) scale(0.100000,-0.100000)"
fill="#000000" stroke="none">
<path d="M7276 30013 c-1 -1 -31 -5 -67 -7 -35 -3 -64 -6 -64 -6 0 -1 -7 -3
-15 -5 -177 -38 -251 -64 -385 -132 -114 -58 -207 -121 -294 -200 -25 -24 -50
-43 -54 -43 -5 0 -5 -4 -2 -10 3 -5 -1 -10 -10 -10 -9 0 -13 -4 -10 -10 3 -5
0 -10 -7 -10 -8 0 -21 -12 -30 -27 -10 -16 -33 -45 -53 -65 -20 -21 -33 -38
-29 -38 4 0 -2 -10 -13 -22 -56 -62 -176 -299 -198 -393 -3 -11 -14 -57 -25
-102 -11 -46 -20 -93 -19 -105 0 -13 -4 -41 -9 -63 -9 -43 -7 -293 3 -335 3
-14 8 -38 10 -55 10 -66 40 -177 67 -245 21 -56 117 -251 127 -260 10 -9 51
-69 51 -75 0 -3 8 -13 18 -23 9 -10 31 -35 47 -56 17 -20 50 -56 74 -79 24
-23 51 -50 60 -59 8 -10 21 -18 28 -18 7 0 13 -6 13 -12 0 -22 286 -200 332
-207 4 -1 29 -11 55 -22 51 -22 121 -45 163 -53 14 -2 45 -9 70 -15 25 -6 79
-14 120 -18 99 -9 16655 -9 16745 0 39 4 82 10 95 13 14 4 35 7 48 8 12 0 22
3 22 6 0 3 9 6 20 7 83 6 337 124 464 215 82 58 266 227 266 243 0 4 11 18 26
31 14 13 23 24 20 24 -3 0 10 21 29 46 19 25 35 49 35 54 0 5 6 15 13 22 36
40 132 261 152 351 2 10 6 26 9 35 3 9 8 31 11 47 2 17 7 41 10 55 17 84 22
268 11 377 -11 99 -15 119 -35 196 -44 161 -88 262 -177 407 -161 259 -430
471 -719 568 -16 6 -39 14 -50 18 -11 4 -24 9 -30 10 -5 1 -12 3 -15 4 -11 4
-47 11 -71 14 -14 1 -30 5 -35 8 -5 3 -19 4 -31 3 -13 -1 -23 2 -23 6 0 4 -8
8 -17 9 -41 2 -16725 5 -16727 3z"/>
<path d="M2107 25664 c-1 -1 -36 -5 -77 -8 -41 -3 -86 -8 -100 -10 -14 -3 -43
-8 -65 -11 -22 -4 -44 -8 -50 -9 -9 -2 -82 -19 -95 -21 -27 -5 -132 -39 -159
-52 -18 -8 -39 -16 -45 -17 -6 -1 -28 -10 -49 -19 -20 -9 -39 -15 -40 -14 -2
1 -11 -6 -21 -16 -10 -9 -22 -15 -27 -12 -5 4 -9 2 -9 -2 0 -5 -25 -22 -55
-38 -30 -15 -55 -31 -55 -35 0 -3 -15 -14 -32 -25 -36 -21 -52 -34 -130 -111
-72 -70 -85 -87 -146 -177 -78 -117 -171 -324 -157 -347 3 -5 0 -10 -5 -12
-14 -4 -59 -224 -63 -300 -1 -32 -4 -58 -8 -58 -7 0 -4 -365 5 -425 4 -27 12
-75 18 -105 6 -30 12 -62 14 -70 4 -26 34 -134 43 -155 4 -11 13 -31 19 -45
76 -183 183 -337 312 -450 35 -30 70 -63 79 -72 8 -10 20 -18 27 -18 6 0 19
-9 29 -20 10 -11 24 -20 32 -20 7 0 13 -4 13 -10 0 -5 7 -10 15 -10 8 0 15 -3
15 -8 0 -4 15 -13 33 -21 17 -8 39 -19 47 -26 22 -18 194 -89 285 -119 104
-33 251 -68 345 -81 87 -12 110 -15 190 -21 47 -4 2768 -7 6048 -7 l5962 0 1
-7971 c1 -4384 2 -7984 3 -8001 4 -48 17 -138 22 -157 3 -9 7 -26 9 -37 3 -12
8 -31 11 -43 3 -13 8 -38 11 -56 3 -17 9 -32 15 -32 5 0 7 -4 4 -9 -3 -4 1
-17 9 -27 8 -10 15 -29 15 -41 0 -13 5 -23 10 -23 6 0 10 -5 10 -11 0 -16 77
-167 91 -179 3 -3 21 -27 39 -55 46 -67 63 -86 151 -174 81 -82 129 -124 129
-116 0 3 10 -4 23 -15 48 -46 274 -166 347 -185 3 0 21 -6 41 -13 20 -7 47
-15 60 -18 13 -3 33 -7 44 -9 11 -3 31 -7 45 -10 70 -16 128 -20 260 -20 132
0 187 4 260 20 14 2 36 7 49 10 41 8 175 53 227 76 27 12 52 22 57 21 4 -1 7
2 7 7 0 8 37 24 53 22 4 -1 7 4 7 9 0 6 4 10 9 10 10 0 102 58 111 70 3 4 14
12 26 18 51 27 264 238 264 261 0 4 11 18 25 31 13 12 22 27 19 31 -3 5 0 9 5
9 6 0 11 7 11 15 0 8 4 15 8 15 5 0 17 18 27 40 10 22 22 40 27 40 5 0 6 5 3
10 -3 6 -1 10 4 10 6 0 10 3 9 8 -1 4 5 21 12 37 7 17 14 32 15 35 1 3 8 19
15 35 7 17 14 32 15 35 1 3 5 12 8 20 8 20 35 118 41 150 3 14 9 46 14 72 5
26 7 50 4 53 -3 3 -1 5 4 5 7 0 10 2853 10 8006 -1 4403 1 8009 4 8013 3 5
2683 8 5955 8 3273 0 5993 3 6045 7 52 5 109 10 125 12 17 2 50 6 73 9 153 18
419 98 570 171 102 50 238 134 285 178 15 14 30 26 33 26 9 0 129 124 159 165
17 22 32 42 35 45 63 56 199 368 215 490 2 14 4 25 5 25 6 0 26 149 25 188 0
20 2 37 5 37 3 0 5 18 5 40 0 22 -3 40 -8 40 -4 0 -5 6 -1 12 10 16 10 50 0
66 -4 6 -3 12 2 12 10 0 8 42 -2 59 -4 5 -2 12 4 16 6 4 8 10 6 14 -3 4 -8 34
-11 67 -3 33 -12 96 -21 139 -8 44 -16 88 -17 98 -1 9 -4 17 -7 17 -3 0 -6 8
-7 18 -3 44 -68 202 -124 302 -42 74 -99 150 -160 213 -26 26 -45 47 -42 47 2
0 -10 12 -29 27 -18 16 -44 38 -58 51 -14 12 -33 25 -42 28 -10 3 -18 9 -18
14 0 5 -18 19 -40 31 -22 13 -40 27 -40 31 0 5 -4 7 -9 3 -5 -3 -12 -1 -15 4
-6 9 -171 91 -221 111 -11 4 -31 12 -45 18 -14 6 -43 16 -65 23 -22 6 -46 16
-52 22 -7 5 -13 7 -13 4 0 -3 -15 -1 -32 4 -62 18 -253 57 -318 65 -36 4 -76
9 -90 11 -14 3 -2669 6 -5900 7 l-5875 1 -40 -35 c-22 -19 -45 -39 -51 -45 -6
-5 -41 -37 -78 -70 -38 -33 -97 -88 -132 -121 -35 -34 -64 -59 -64 -57 0 3
-21 -15 -47 -40 -27 -25 -62 -58 -79 -74 -158 -141 -200 -181 -218 -200 -11
-13 -23 -23 -27 -23 -4 0 -27 -19 -51 -42 -79 -77 -172 -158 -181 -158 -4 0
-5 -4 -2 -10 3 -5 2 -10 -3 -10 -5 0 -20 -10 -34 -22 -14 -13 -62 -57 -108
-98 -46 -41 -95 -86 -110 -100 -51 -47 -136 -125 -220 -200 -46 -41 -96 -87
-111 -102 -15 -14 -30 -23 -33 -20 -3 3 -6 -1 -6 -10 0 -8 -11 -20 -24 -26
-21 -9 -29 -6 -69 33 -25 24 -48 41 -51 37 -3 -3 -6 3 -6 13 0 10 -3 16 -6 13
-3 -3 -22 10 -43 31 -21 20 -73 68 -116 106 -96 85 -182 163 -210 190 -12 11
-57 52 -100 90 -43 39 -89 80 -101 93 -12 12 -26 22 -31 22 -5 0 -16 11 -23
25 -7 14 -15 23 -18 21 -2 -3 -19 10 -36 27 -18 18 -68 64 -111 102 -89 80
-93 83 -206 185 -45 41 -95 87 -110 103 -15 15 -33 27 -39 27 -6 0 -9 4 -5 9
3 5 -3 12 -14 16 -11 3 -26 17 -35 30 -9 14 -20 25 -25 25 -5 0 -34 24 -64 53
-29 28 -85 79 -122 112 -38 33 -77 69 -87 80 -19 20 -33 20 -5816 22 -3188 1
-5857 4 -5930 6 -73 2 -133 2 -135 1z"/>
<path d="M5690 21472 c0 -4 -48 -7 -108 -7 -59 1 -111 -1 -116 -4 -6 -2 -26
-6 -45 -7 -50 -3 -169 -25 -191 -35 -3 -1 -9 -3 -15 -4 -5 -2 -13 -4 -17 -5
-5 -1 -11 -4 -15 -5 -5 -1 -23 -6 -40 -10 -18 -4 -33 -12 -33 -18 0 -6 -3 -8
-6 -5 -8 9 -134 -42 -134 -53 0 -4 -12 -10 -27 -14 -31 -7 -202 -120 -254
-167 -21 -18 -45 -40 -55 -49 -37 -32 -111 -115 -155 -174 -24 -33 -46 -62
-49 -65 -15 -15 -148 -269 -150 -288 0 -4 -10 -36 -21 -72 -11 -36 -22 -73
-24 -83 -2 -10 -6 -26 -9 -35 -6 -21 -16 -75 -21 -122 -3 -19 -7 -45 -9 -57
-3 -13 0 -23 5 -23 6 0 6 -6 0 -17 -7 -15 -8 -206 -1 -223 1 -3 2 -8 1 -12 0
-4 4 -31 10 -62 5 -30 12 -68 14 -83 6 -41 30 -126 43 -148 5 -11 11 -23 11
-27 3 -16 13 -44 22 -60 5 -10 9 -24 9 -32 0 -7 7 -19 15 -26 9 -7 14 -15 11
-17 -14 -14 188 -315 220 -327 8 -3 14 -10 14 -15 0 -6 21 -33 48 -61 26 -28
65 -71 87 -96 22 -25 56 -63 75 -84 19 -21 49 -54 65 -72 91 -103 183 -205
205 -229 14 -15 50 -56 80 -91 30 -34 70 -78 87 -97 18 -18 33 -35 33 -37 0
-3 14 -18 30 -34 17 -16 30 -34 30 -40 0 -6 5 -8 10 -5 6 3 10 3 10 -2 0 -4
16 -26 36 -48 20 -22 61 -69 92 -104 31 -36 69 -77 85 -93 15 -15 27 -29 27
-31 0 -4 90 -104 157 -174 22 -23 40 -43 37 -43 -2 0 9 -13 24 -29 15 -15 56
-61 92 -101 36 -41 74 -84 85 -96 11 -12 45 -50 75 -84 30 -35 84 -94 120
-132 36 -39 66 -74 68 -78 2 -4 29 -35 60 -68 31 -32 77 -83 102 -113 25 -29
52 -60 60 -68 9 -9 47 -52 85 -96 39 -44 88 -99 110 -122 22 -23 51 -55 65
-71 14 -15 45 -51 70 -79 25 -27 70 -78 100 -112 30 -34 69 -77 85 -95 17 -18
57 -64 90 -101 33 -38 75 -84 93 -103 17 -18 32 -35 32 -38 0 -2 12 -16 28
-32 26 -27 159 -174 192 -212 58 -67 130 -147 158 -176 17 -19 32 -36 32 -38
0 -2 17 -21 38 -43 20 -21 62 -67 92 -102 30 -35 69 -78 85 -95 17 -18 57 -63
90 -100 33 -38 79 -88 101 -112 23 -24 40 -44 38 -44 -3 0 77 -89 139 -153 20
-22 37 -41 37 -43 0 -2 14 -18 30 -36 17 -17 30 -35 30 -40 0 -5 5 -6 10 -3 6
3 10 2 10 -3 0 -5 10 -20 23 -34 81 -89 119 -132 172 -193 33 -37 75 -83 93
-102 17 -18 32 -35 32 -37 0 -3 79 -92 137 -152 22 -24 39 -44 36 -44 -3 0 4
-8 15 -17 11 -10 62 -65 113 -123 110 -125 143 -162 187 -207 18 -18 30 -33
28 -33 -4 0 64 -76 131 -147 17 -18 29 -33 27 -33 -2 0 15 -20 39 -44 57 -60
161 -177 165 -187 3 -6 -43 -63 -119 -146 -16 -18 -29 -35 -29 -37 0 -3 -12
-18 -27 -34 -28 -29 -55 -61 -189 -217 -38 -44 -73 -85 -79 -91 -17 -20 -108
-126 -153 -178 -23 -28 -58 -68 -77 -88 -19 -21 -35 -40 -35 -42 0 -3 -13 -19
-30 -36 -16 -17 -30 -35 -30 -41 0 -6 -4 -7 -10 -4 -5 3 -10 1 -10 -5 0 -10
-39 -57 -90 -109 -14 -14 -27 -29 -28 -34 -2 -7 -30 -40 -81 -96 -12 -14 -39
-46 -60 -70 -20 -25 -47 -57 -61 -72 -14 -15 -41 -46 -61 -70 -21 -24 -48 -56
-60 -70 -13 -14 -42 -48 -64 -74 -22 -27 -54 -64 -72 -82 -17 -18 -29 -33 -26
-33 2 0 -2 -6 -9 -13 -7 -8 -38 -42 -68 -77 -30 -35 -61 -69 -67 -76 -7 -7
-13 -15 -13 -18 0 -3 -12 -18 -27 -34 -16 -15 -43 -46 -61 -68 -66 -77 -118
-136 -149 -170 -18 -19 -29 -34 -25 -34 4 0 2 -4 -4 -8 -11 -7 -52 -54 -144
-162 -25 -29 -49 -58 -55 -64 -27 -30 -85 -98 -125 -146 -25 -29 -54 -63 -65
-75 -11 -12 -36 -41 -57 -66 -20 -24 -52 -61 -71 -82 -19 -20 -46 -51 -59 -68
-12 -16 -36 -45 -53 -64 -16 -18 -43 -50 -60 -69 -16 -20 -47 -55 -68 -78 -21
-24 -48 -56 -60 -71 -12 -15 -33 -40 -47 -55 -14 -15 -47 -54 -75 -86 -27 -33
-59 -69 -70 -82 -11 -12 -36 -41 -56 -65 -21 -24 -48 -56 -60 -70 -13 -14 -42
-48 -64 -74 -22 -27 -54 -64 -72 -83 -18 -18 -33 -36 -35 -40 -2 -7 -45 -57
-90 -104 -16 -16 -28 -33 -28 -38 0 -6 -5 -10 -10 -10 -6 0 -15 -11 -22 -25
-6 -13 -15 -22 -19 -19 -5 3 -9 0 -9 -6 0 -6 -6 -17 -13 -24 -7 -8 -33 -37
-58 -66 -24 -28 -53 -62 -64 -74 -11 -12 -38 -44 -60 -70 -22 -27 -55 -64 -72
-83 -18 -18 -33 -36 -33 -39 0 -2 -13 -18 -30 -34 -16 -16 -30 -32 -30 -35 0
-3 -8 -13 -17 -23 -10 -10 -36 -40 -58 -67 -22 -26 -51 -60 -65 -74 -14 -15
-43 -49 -65 -76 -22 -28 -43 -52 -46 -55 -4 -3 -51 -57 -105 -120 -119 -138
-121 -141 -159 -184 -16 -18 -46 -52 -65 -76 -19 -23 -42 -50 -50 -60 -81 -95
-119 -138 -140 -161 -14 -16 -41 -47 -60 -70 -19 -23 -45 -54 -58 -68 -13 -13
-35 -40 -50 -59 -15 -19 -38 -46 -52 -61 -28 -30 -72 -81 -140 -161 -25 -30
-55 -64 -68 -76 -12 -13 -22 -27 -22 -33 0 -5 -4 -11 -9 -13 -17 -7 -162 -186
-191 -237 -8 -14 -17 -28 -20 -31 -10 -10 -30 -45 -54 -95 -59 -125 -68 -146
-70 -170 0 -14 -4 -25 -7 -25 -4 0 -12 -21 -19 -47 -8 -27 -14 -50 -15 -53
-10 -34 -27 -130 -30 -167 -2 -27 -5 -48 -6 -48 -4 0 -5 -231 -1 -238 2 -5 6
-33 8 -63 8 -112 59 -286 126 -429 40 -86 159 -269 198 -305 3 -3 33 -35 67
-71 34 -37 65 -64 68 -61 3 3 5 0 5 -6 0 -6 9 -14 20 -17 11 -4 18 -11 15 -16
-4 -5 -1 -9 5 -9 6 0 18 -6 25 -12 25 -23 39 -33 90 -65 28 -18 55 -36 60 -40
22 -18 204 -97 270 -119 323 -103 691 -88 985 42 76 34 145 69 148 77 2 4 10
7 17 7 8 0 18 7 23 16 5 9 13 16 18 16 14 0 64 31 64 40 0 4 4 8 9 8 21 0 210
181 286 274 43 52 42 52 124 145 30 34 66 78 80 96 14 19 32 34 40 35 8 0 12
3 8 6 -3 4 -1 12 6 19 7 6 30 34 52 60 22 27 50 59 63 71 12 13 22 27 22 33 0
5 4 11 9 13 6 2 160 178 351 401 6 6 26 30 46 52 19 22 45 53 57 68 12 15 33
40 47 55 14 15 45 52 70 81 25 30 54 64 65 76 11 13 40 47 65 75 25 29 51 58
58 66 6 7 12 17 12 23 0 6 7 11 15 11 8 0 15 5 15 10 0 6 12 23 28 38 15 15
35 37 43 50 9 12 31 39 50 60 30 33 74 84 160 186 13 16 35 41 49 56 14 15 39
45 56 66 18 22 42 50 55 65 13 14 42 47 64 73 22 27 54 63 70 81 17 18 46 52
65 76 19 23 47 55 63 71 15 16 27 31 27 33 0 3 8 13 18 23 9 10 40 44 67 77
28 32 60 69 73 81 12 13 22 26 22 29 0 3 10 16 23 29 19 20 83 92 140 160 85
100 104 122 120 138 9 10 17 20 17 23 0 2 12 17 28 33 15 15 45 50 67 76 22
27 47 56 55 66 8 9 38 43 65 75 28 32 61 71 75 87 14 15 41 46 60 69 19 22 44
51 55 63 11 12 36 42 55 66 19 24 46 55 60 70 14 15 36 40 50 56 32 37 130
152 152 179 9 11 26 31 37 44 12 13 21 28 21 33 0 5 5 6 10 3 6 -3 10 -1 10 4
0 6 16 27 35 47 19 19 35 38 35 40 0 2 8 12 18 22 9 10 28 32 42 48 14 16 70
81 124 144 54 63 115 135 135 158 20 24 51 59 69 78 17 18 32 36 32 39 0 3 14
19 30 35 17 17 28 30 24 30 -3 0 3 8 14 18 16 13 227 257 352 406 14 17 36 41
50 55 13 15 24 28 25 31 0 3 3 4 8 2 4 -1 7 3 7 8 0 9 17 31 75 95 11 13 38
44 60 71 38 46 114 133 125 144 3 3 16 18 28 34 12 15 41 50 64 76 24 26 63
71 88 100 25 29 53 62 63 73 9 11 17 24 17 29 0 5 5 6 10 3 6 -3 10 -2 10 3 0
9 7 17 73 93 18 20 48 56 67 79 19 23 46 54 60 69 14 16 40 46 58 69 19 23 44
52 55 65 19 21 82 93 140 161 10 11 28 32 40 46 12 14 21 28 19 33 -1 4 5 7
13 7 8 0 15 4 15 9 0 5 16 25 35 45 19 20 33 36 30 36 -2 0 8 12 22 28 14 15
42 47 62 71 20 25 51 60 69 78 17 18 32 35 32 39 0 4 11 17 25 30 14 13 25 25
25 28 0 3 13 19 30 34 16 16 30 35 30 41 0 7 5 9 10 6 6 -3 10 -1 10 4 0 6 11
24 24 39 54 60 76 87 76 93 0 3 11 18 24 33 13 16 34 47 46 70 34 61 92 180
94 191 1 6 7 20 14 31 6 12 8 24 5 28 -3 3 -2 6 4 6 5 0 10 6 10 13 0 6 10 44
20 82 11 39 21 73 22 78 0 4 1 8 2 10 1 1 2 13 4 27 2 14 6 45 10 70 14 99 9
335 -11 435 -3 17 -6 40 -7 53 -1 12 -5 22 -8 22 -3 0 -6 6 -7 13 0 6 -4 26
-7 42 -4 17 -8 36 -8 43 0 6 -5 12 -10 12 -5 0 -6 7 -3 15 3 9 -1 18 -9 21 -8
4 -12 10 -9 15 3 6 -2 21 -10 34 -9 14 -14 25 -11 25 3 0 -7 24 -22 53 -15 28
-27 55 -28 59 0 9 -120 190 -145 218 -65 76 -134 153 -240 270 -85 94 -110
124 -110 133 0 4 -7 7 -15 7 -8 0 -15 5 -15 11 0 7 -10 21 -22 33 -13 12 -50
53 -83 91 -33 37 -73 82 -88 99 -69 76 -107 119 -242 271 -38 43 -84 93 -102
112 -17 18 -30 33 -28 33 2 0 -21 25 -51 56 -30 31 -54 59 -54 62 0 2 -10 15
-22 27 -32 31 -81 85 -173 190 -43 50 -89 100 -102 112 -13 12 -23 24 -23 27
0 2 -15 20 -32 39 -85 90 -108 118 -108 129 0 6 -3 9 -6 5 -3 -3 -31 24 -63
61 -31 37 -65 76 -76 87 -11 11 -50 53 -85 94 -36 41 -74 84 -85 95 -11 12
-51 57 -90 100 -38 44 -79 89 -90 101 -11 13 -42 48 -70 80 -27 32 -61 69 -75
84 -14 14 -61 67 -104 116 -44 50 -89 100 -100 111 -12 12 -46 50 -76 84 -30
35 -68 78 -85 96 -16 18 -55 61 -85 95 -30 34 -64 72 -75 84 -122 138 -153
172 -173 194 -13 14 -49 55 -80 90 -32 36 -72 80 -89 98 -18 19 -33 38 -33 44
0 6 -4 7 -10 4 -5 -3 -10 -1 -10 5 0 6 -15 26 -32 45 -18 18 -56 60 -84 92
-101 114 -139 157 -159 179 -12 12 -48 53 -80 90 -33 36 -71 79 -85 94 -14 15
-54 60 -90 101 -36 40 -79 88 -97 106 -17 18 -29 34 -25 36 4 1 27 3 52 2 25
0 48 5 52 10 5 6 8 6 8 -1 0 -12 78 -13 97 -1 6 4 14 4 17 -1 6 -10 106 -9
123 1 6 4 14 3 17 -2 6 -10 66 -8 84 3 6 3 13 3 15 -1 6 -10 588 -10 604 0 6
4 14 3 17 -2 6 -10 66 -8 84 3 6 3 13 3 16 -2 6 -10 106 -9 123 1 6 4 14 3 17
-2 6 -10 66 -8 84 3 6 3 13 3 15 -1 6 -10 588 -10 604 0 6 4 14 3 17 -2 6 -10
66 -8 84 3 6 3 13 3 16 -2 6 -10 106 -9 123 1 6 4 14 3 17 -2 6 -10 66 -8 84
3 6 3 13 3 16 -2 5 -8 276 -8 337 1 145 20 304 67 425 125 57 27 184 100 194
112 3 3 18 14 33 23 34 22 58 42 103 84 19 18 34 29 34 25 0 -4 8 5 18 21 10
15 22 24 25 20 4 -3 7 -1 7 5 0 7 20 33 45 59 25 25 45 49 45 54 0 4 6 14 14
22 36 36 174 276 182 317 0 3 4 14 9 25 30 73 33 85 25 80 -5 -3 -2 8 7 25 8
17 17 45 20 63 3 18 6 37 7 42 1 6 4 15 7 20 3 6 5 22 4 38 0 15 2 27 7 27 4
0 5 18 3 40 -2 22 -1 40 3 40 10 0 9 182 -1 198 -5 7 -4 12 3 12 6 0 8 4 5 10
-3 5 -9 36 -12 67 -11 116 -50 264 -99 377 -37 88 -114 225 -148 267 -12 14
-32 40 -46 59 -22 28 -84 100 -107 122 -33 32 -85 77 -113 98 -18 14 -39 31
-46 38 -20 19 -174 112 -187 112 -7 0 -23 9 -37 20 -14 11 -29 20 -35 20 -10
0 -103 35 -144 54 -13 6 -32 10 -42 8 -9 -2 -20 2 -23 7 -4 6 -13 8 -21 4 -8
-3 -15 -1 -15 4 0 5 -10 9 -22 8 -13 -1 -27 0 -33 4 -20 11 -151 24 -265 25
-47 1 -88 6 -92 11 -5 6 -8 6 -8 -1 0 -6 -7 -11 -15 -11 -8 0 -15 5 -15 11 0
7 -3 7 -8 1 -4 -6 -89 -10 -217 -10 -128 0 -213 4 -217 10 -5 6 -8 6 -8 -1 0
-6 -7 -11 -15 -11 -8 0 -15 5 -15 11 0 7 -3 7 -8 1 -4 -6 -89 -10 -219 -10
-135 0 -213 4 -213 10 0 6 -4 4 -9 -3 -4 -8 -12 -14 -16 -14 -4 0 -12 6 -16
14 -5 7 -9 9 -9 3 0 -11 -597 -12 -625 -1 -8 3 -15 2 -15 -2 0 -8 -443 -7
-465 2 -8 3 -15 2 -15 -2 0 -9 -124 -7 -146 2 -8 3 -14 2 -14 -2 0 -8 -603 -7
-625 2 -8 3 -15 2 -15 -2 0 -8 -443 -7 -465 2 -8 3 -15 2 -15 -2 0 -9 -124 -7
-146 2 -8 3 -14 2 -14 -2 0 -8 -603 -7 -625 2 -8 3 -15 2 -15 -2 0 -8 -443 -7
-465 2 -8 3 -15 2 -15 -2 0 -9 -124 -7 -146 2 -8 3 -14 2 -14 -2 0 -8 -603 -7
-625 2 -8 3 -15 2 -15 -2z"/>
<path d="M19897 21444 c-3 -5 -29 -9 -59 -9 -29 0 -56 -4 -60 -10 -5 -6 -8 -5
-8 3 0 8 -5 10 -12 5 -7 -4 -22 -8 -33 -10 -38 -4 -90 -12 -115 -18 -14 -3
-36 -8 -49 -11 -14 -3 -28 -7 -33 -10 -7 -5 -27 -10 -65 -18 -7 -1 -16 -5 -19
-9 -4 -4 -16 -7 -26 -7 -10 0 -18 -5 -18 -12 0 -6 -3 -9 -6 -6 -3 4 -17 0 -31
-7 -15 -8 -30 -12 -35 -9 -4 3 -8 1 -8 -3 0 -9 -59 -37 -72 -34 -5 0 -8 -3 -8
-8 0 -5 -13 -14 -30 -21 -16 -7 -30 -17 -30 -22 0 -5 -4 -7 -9 -4 -5 3 -14 -1
-21 -9 -7 -8 -18 -15 -25 -15 -8 0 -15 -3 -17 -8 -1 -4 -28 -27 -58 -50 -129
-102 -266 -254 -326 -362 -10 -19 -22 -37 -25 -40 -8 -6 -82 -164 -96 -205 -6
-16 -14 -39 -19 -50 -9 -25 -12 -34 -18 -63 -3 -12 -7 -25 -9 -30 -5 -6 -14
-52 -22 -107 -2 -11 -4 -21 -5 -22 -2 -2 -3 -15 -4 -30 -1 -16 -4 -32 -7 -38
-7 -13 -2 -6858 5 -6905 13 -88 23 -134 35 -177 5 -17 7 -34 3 -37 -3 -3 0 -6
6 -6 7 0 11 -3 10 -7 -5 -18 50 -161 70 -185 8 -10 12 -18 8 -18 -17 0 108
-198 177 -280 67 -79 144 -166 170 -191 15 -15 27 -30 27 -33 0 -3 15 -21 33
-40 17 -19 49 -53 70 -75 21 -23 36 -41 34 -41 -2 0 14 -20 37 -43 23 -24 65
-71 94 -104 29 -33 63 -72 75 -85 36 -39 142 -160 173 -197 28 -33 43 -49 112
-124 17 -19 32 -40 32 -46 0 -6 4 -11 9 -11 12 0 28 -16 61 -60 14 -18 41 -49
60 -69 19 -20 54 -59 77 -86 23 -28 58 -68 79 -90 20 -22 62 -69 93 -105 31
-36 66 -75 78 -87 13 -12 23 -24 23 -27 0 -3 15 -21 33 -40 29 -31 84 -92 177
-199 19 -23 46 -52 60 -67 14 -14 45 -50 70 -80 25 -30 56 -66 70 -80 14 -14
50 -54 80 -90 30 -35 76 -86 103 -113 26 -27 47 -52 47 -56 0 -4 10 -17 23
-28 12 -12 45 -47 72 -79 28 -32 57 -65 65 -74 8 -9 30 -34 49 -55 57 -67 164
-186 204 -228 20 -22 37 -42 37 -44 0 -4 17 -24 90 -103 14 -14 48 -53 75 -84
28 -32 61 -71 75 -86 14 -15 50 -56 80 -91 30 -34 64 -73 75 -85 11 -12 43
-48 70 -79 28 -31 69 -77 93 -102 23 -25 42 -48 42 -52 0 -3 8 -14 18 -22 9
-9 29 -29 43 -46 26 -29 44 -50 190 -214 36 -41 79 -90 95 -109 16 -19 46 -52
66 -73 21 -21 38 -40 38 -42 0 -3 26 -32 58 -66 31 -33 59 -65 61 -71 2 -5 26
-32 53 -59 27 -27 47 -49 44 -49 -3 0 9 -15 27 -33 18 -18 57 -62 87 -97 55
-63 76 -87 148 -166 20 -23 60 -67 87 -99 50 -57 60 -69 145 -164 25 -28 56
-64 70 -80 81 -92 137 -157 155 -176 17 -19 63 -70 180 -203 17 -19 41 -46 55
-61 14 -15 50 -56 80 -91 30 -35 63 -71 73 -79 9 -9 17 -18 17 -22 0 -4 17
-24 38 -46 20 -22 64 -71 97 -108 33 -37 65 -73 70 -79 6 -6 39 -45 75 -86 78
-90 67 -77 165 -185 44 -48 81 -91 83 -96 2 -4 20 -25 40 -47 20 -21 66 -72
102 -112 36 -41 75 -85 88 -99 12 -14 32 -38 45 -52 46 -53 163 -184 180 -201
9 -10 17 -20 17 -22 0 -7 183 -186 190 -186 4 0 20 -11 36 -25 16 -14 56 -42
89 -62 33 -20 62 -39 65 -42 3 -3 12 -7 20 -9 8 -2 17 -8 18 -13 2 -5 8 -9 13
-9 6 0 35 -11 64 -25 30 -13 67 -27 82 -31 16 -4 33 -10 38 -14 9 -7 49 -19
84 -26 7 -1 34 -8 60 -14 78 -18 94 -21 166 -27 154 -15 312 -5 455 28 25 5
48 10 53 9 4 0 21 7 37 15 17 9 30 13 30 11 0 -19 324 139 342 168 4 6 8 8 8
4 0 -5 8 -1 18 7 9 9 44 37 76 62 109 86 282 285 319 366 6 15 15 27 19 27 5
0 7 3 6 7 -1 5 18 47 41 94 23 48 44 93 45 100 2 8 8 26 14 42 7 15 14 38 16
50 3 12 8 33 11 47 4 14 7 31 7 38 1 6 4 12 7 12 3 0 6 10 7 23 1 32 11 84 19
96 3 6 1 11 -5 11 -7 0 -8 6 -1 18 22 41 4 399 -23 440 -4 7 -6 16 -3 18 3 3
1 20 -4 37 -6 18 -12 39 -14 48 -6 27 -35 112 -43 123 -4 6 -7 13 -7 16 -1 26
-103 215 -152 280 -52 70 -141 175 -205 243 -21 22 -38 41 -38 44 0 2 -15 19
-32 37 -18 19 -48 52 -67 75 -18 22 -45 53 -60 69 -25 27 -94 105 -201 227
-29 33 -67 76 -84 95 -160 178 -194 218 -189 224 4 3 -1 6 -10 6 -10 0 -17 3
-17 8 0 4 -18 27 -40 52 -22 25 -64 72 -93 104 -91 103 -151 170 -170 191 -10
11 -46 53 -80 93 -34 39 -65 72 -70 72 -4 0 -5 5 -2 10 3 6 -1 10 -9 10 -9 0
-16 4 -16 10 0 5 -12 23 -27 39 -31 33 -127 140 -158 176 -99 114 -124 142
-148 168 -15 16 -46 52 -70 79 -23 28 -53 62 -67 77 -14 15 -43 48 -65 73 -22
25 -66 75 -98 111 -32 36 -67 76 -78 89 -23 27 -113 128 -148 167 -13 14 -44
50 -70 80 -25 30 -66 76 -91 103 -25 27 -60 65 -77 86 -40 46 -65 74 -123 139
-42 47 -118 133 -165 187 -89 102 -125 142 -157 176 -21 22 -38 42 -38 45 0 3
-20 26 -45 52 -25 25 -60 63 -77 85 -18 22 -52 61 -75 87 -24 25 -43 50 -43
54 0 5 -4 5 -10 2 -5 -3 -10 -1 -10 4 0 6 -8 19 -17 29 -10 10 -43 47 -73 83
-30 35 -59 69 -65 75 -5 6 -39 44 -75 84 -36 40 -74 83 -85 95 -11 13 -45 51
-75 85 -30 35 -66 75 -80 90 -14 15 -46 52 -72 82 -26 30 -58 66 -70 80 -13
13 -48 53 -78 88 -30 35 -68 78 -85 96 -16 18 -43 47 -59 66 -15 18 -47 54
-70 79 -22 25 -66 74 -96 109 -30 35 -65 74 -77 86 -13 13 -23 28 -23 34 0 6
-4 8 -10 5 -5 -3 -10 -2 -10 4 0 6 -10 21 -22 34 -20 20 -96 106 -153 171 -11
13 -51 58 -90 101 -38 43 -81 91 -95 108 -14 17 -42 49 -62 70 -21 22 -38 42
-38 44 0 3 -15 20 -32 38 -18 18 -49 52 -68 75 -19 23 -54 62 -77 87 -24 24
-43 48 -43 53 0 5 -4 10 -8 12 -5 2 -66 68 -136 148 -196 222 -249 281 -273
306 -13 13 -23 28 -23 34 0 6 -4 8 -10 5 -5 -3 -10 -1 -10 6 0 7 -14 25 -32
41 l-32 29 -1 2320 c0 1277 2 2324 5 2328 3 4 1018 8 2255 8 1238 1 2275 3
2305 6 45 5 125 19 175 31 6 1 26 6 45 10 19 5 40 11 45 14 6 4 16 7 24 9 40
6 281 122 281 135 0 4 9 8 20 8 11 0 20 4 20 8 0 4 13 15 29 25 88 52 238 197
328 317 89 119 193 329 218 440 1 3 7 24 13 47 7 23 12 45 10 50 -1 4 4 26 10
49 7 23 14 68 15 101 2 33 7 65 11 71 3 6 3 13 -2 16 -4 2 -5 34 -2 71 3 36 3
68 0 71 -2 3 -5 26 -6 52 -1 26 -3 47 -4 47 -3 0 -10 41 -11 70 -1 17 -4 35
-8 40 -5 10 -8 20 -15 60 -2 11 -6 27 -9 35 -3 8 -11 33 -18 55 -6 22 -16 46
-22 53 -5 6 -7 12 -3 12 4 0 0 13 -9 30 -8 16 -16 33 -17 37 -2 16 -72 141
-112 199 -73 110 -194 243 -275 304 -19 14 -45 35 -59 47 -14 12 -41 30 -59
40 -18 10 -33 21 -33 25 0 5 -5 8 -10 8 -6 0 -27 10 -48 23 -31 19 -105 53
-217 98 -26 10 -58 19 -92 25 -15 3 -31 8 -37 12 -6 3 -20 7 -31 9 -11 1 -33
5 -50 8 -49 9 -106 15 -170 18 -33 1 -66 6 -72 10 -7 5 -13 4 -13 0 0 -5 -9
-9 -20 -9 -11 0 -20 4 -20 9 0 4 -6 5 -12 1 -18 -11 -48 -12 -48 -2 0 5 -6 6
-12 2 -19 -12 -48 -12 -48 -1 0 6 -5 6 -12 1 -16 -11 -39 -11 -55 -1 -7 5 -13
4 -13 0 0 -5 -9 -9 -20 -9 -11 0 -20 4 -20 9 0 5 -6 5 -13 -1 -8 -7 -18 -7
-27 -2 -8 5 -21 5 -30 0 -9 -5 -22 -5 -30 0 -7 4 -18 6 -24 4 -26 -10 -76 -11
-76 -1 0 6 -5 6 -12 1 -16 -11 -39 -11 -55 -1 -7 5 -13 4 -13 0 0 -5 -9 -9
-20 -9 -11 0 -20 4 -20 9 0 5 -6 5 -13 -1 -8 -7 -18 -7 -27 -2 -8 5 -21 5 -30
0 -9 -5 -22 -5 -29 -1 -7 5 -28 5 -46 1 -18 -4 -39 -4 -46 0 -7 5 -22 4 -34 0
-14 -5 -27 -4 -34 3 -7 7 -11 7 -11 0 0 -10 -47 -10 -57 1 -3 3 -14 1 -24 -4
-12 -7 -20 -7 -24 0 -4 6 -12 7 -18 3 -16 -10 -47 -11 -47 -2 0 4 -13 4 -30
-1 -19 -5 -30 -5 -30 1 0 6 -6 7 -12 3 -19 -12 -48 -12 -48 -1 0 5 -5 5 -13
-1 -8 -7 -18 -7 -27 -2 -8 5 -18 6 -23 3 -15 -9 -57 -10 -57 -1 0 5 -6 6 -12
2 -19 -12 -48 -12 -48 -1 0 6 -5 6 -12 1 -16 -11 -39 -11 -55 -1 -7 5 -13 4
-13 0 0 -5 -9 -9 -20 -9 -11 0 -20 4 -20 9 0 4 -6 5 -12 1 -17 -11 -48 -12
-48 -3 0 4 -13 4 -30 -1 -19 -5 -30 -5 -30 1 0 6 -6 7 -12 3 -19 -12 -48 -12
-48 -1 0 5 -5 5 -13 -1 -7 -6 -18 -7 -27 -2 -7 4 -23 5 -35 0 -12 -5 -28 -5
-35 0 -7 5 -23 4 -35 0 -14 -5 -27 -4 -34 3 -6 6 -11 7 -11 1 0 -11 -60 -12
-78 0 -7 4 -12 3 -12 -1 0 -5 -9 -9 -20 -9 -11 0 -20 4 -20 9 0 4 -6 5 -12 1
-18 -11 -48 -12 -48 -2 0 5 -6 6 -12 2 -19 -12 -48 -12 -48 -1 0 6 -5 6 -12 1
-16 -11 -39 -11 -55 -1 -7 5 -13 4 -13 0 0 -5 -9 -9 -20 -9 -11 0 -20 4 -20 9
0 5 -6 5 -13 -1 -8 -7 -18 -7 -27 -2 -8 5 -21 5 -30 0 -9 -5 -22 -5 -30 0 -7
4 -18 6 -24 4 -26 -10 -76 -11 -76 -1 0 6 -5 6 -12 1 -16 -11 -39 -11 -55 -1
-7 5 -13 4 -13 0 0 -5 -9 -9 -20 -9 -11 0 -20 4 -20 9 0 5 -6 5 -13 -1 -8 -7
-18 -7 -27 -2 -8 5 -21 5 -30 0 -9 -5 -22 -5 -29 -1 -7 5 -28 5 -46 1 -18 -4
-39 -4 -46 0 -7 5 -22 4 -34 0 -14 -5 -27 -4 -34 3 -7 7 -11 7 -11 0 0 -10
-47 -10 -57 1 -3 3 -14 1 -24 -4 -12 -7 -20 -7 -24 0 -4 6 -12 7 -18 3 -16
-10 -47 -11 -47 -2 0 4 -13 4 -30 -1 -19 -5 -30 -5 -30 1 0 6 -6 7 -12 3 -19
-12 -48 -12 -48 -1 0 5 -5 5 -13 -1 -8 -7 -18 -7 -27 -2 -8 5 -18 6 -23 3 -15
-9 -57 -10 -57 -1 0 5 -6 6 -12 2 -19 -12 -48 -12 -48 -1 0 6 -5 6 -12 1 -16
-11 -39 -11 -55 -1 -7 5 -13 4 -13 0 0 -5 -9 -9 -20 -9 -11 0 -20 4 -20 9 0 4
-6 5 -12 1 -17 -11 -48 -12 -48 -3 0 4 -13 4 -30 -1 -19 -5 -30 -5 -30 1 0 6
-6 7 -12 3 -19 -12 -48 -12 -48 -1 0 5 -5 5 -13 -1 -7 -6 -18 -7 -27 -2 -7 4
-23 5 -35 0 -12 -5 -28 -5 -35 0 -7 5 -23 4 -35 0 -14 -5 -27 -4 -34 3 -6 6
-11 7 -11 1 0 -11 -60 -12 -78 0 -7 4 -12 3 -12 -1 0 -5 -9 -9 -20 -9 -11 0
-20 4 -20 9 0 4 -6 5 -12 1 -18 -11 -48 -12 -48 -2 0 5 -6 6 -12 2 -19 -12
-48 -12 -48 -1 0 6 -5 6 -12 1 -16 -11 -39 -11 -55 -1 -7 5 -13 4 -13 0 0 -5
-9 -9 -20 -9 -11 0 -20 4 -20 9 0 5 -6 5 -13 -1 -8 -7 -18 -7 -27 -2 -8 5 -21
5 -30 0 -9 -5 -22 -5 -30 0 -7 4 -18 6 -24 4 -26 -10 -76 -11 -76 -1 0 6 -5 6
-12 1 -16 -11 -39 -11 -55 -1 -7 5 -13 4 -13 0 0 -5 -9 -9 -20 -9 -11 0 -20 4
-20 9 0 5 -6 5 -13 -1 -8 -7 -18 -7 -27 -2 -8 5 -21 5 -30 0 -9 -5 -22 -5 -29
-1 -7 5 -28 5 -46 1 -18 -4 -39 -4 -46 0 -7 5 -22 4 -34 0 -14 -5 -27 -4 -34
3 -7 7 -11 7 -11 0 0 -10 -47 -10 -57 1 -3 3 -14 1 -24 -4 -12 -7 -20 -7 -24
0 -4 6 -12 7 -18 3 -16 -10 -47 -11 -47 -2 0 4 -13 4 -30 -1 -19 -5 -30 -5
-30 1 0 6 -6 7 -12 3 -19 -12 -48 -12 -48 -1 0 5 -5 5 -13 -1 -8 -7 -18 -7
-27 -2 -8 5 -18 6 -23 3 -15 -9 -57 -10 -57 -1 0 5 -6 6 -12 2 -19 -12 -48
-12 -48 -1 0 6 -5 6 -12 1 -16 -11 -39 -11 -55 -1 -7 5 -13 4 -13 0 0 -5 -9
-9 -20 -9 -11 0 -20 4 -20 9 0 4 -6 5 -12 1 -17 -11 -48 -12 -48 -3 0 4 -13 4
-30 -1 -19 -5 -30 -5 -30 1 0 6 -6 7 -12 3 -19 -12 -48 -12 -48 -1 0 5 -5 5
-13 -1 -7 -6 -18 -7 -27 -2 -7 4 -23 5 -35 0 -12 -5 -28 -5 -35 0 -7 5 -23 4
-35 0 -14 -5 -27 -4 -34 3 -6 6 -11 7 -11 1 0 -11 -60 -12 -78 0 -7 4 -12 3
-12 -2 0 -12 -33 -10 -41 2 -4 4 -9 4 -12 0z"/>
<path d="M1235 3969 c-43 -6 -105 -16 -140 -23 -5 -1 -16 -5 -22 -9 -7 -5 -13
-6 -13 -3 0 3 -21 -2 -47 -10 -27 -8 -55 -17 -63 -19 -80 -20 -340 -156 -340
-177 0 -5 -5 -8 -11 -8 -15 0 -136 -99 -143 -116 -3 -8 -10 -14 -15 -14 -18 0
-181 -188 -181 -208 0 -6 -3 -12 -7 -14 -35 -15 -194 -344 -176 -362 4 -3 2
-6 -4 -6 -5 0 -10 -6 -11 -12 0 -7 -3 -24 -7 -38 -11 -46 -17 -75 -18 -87 0
-7 -3 -13 -6 -13 -3 0 -7 -19 -9 -43 -2 -23 -4 -54 -5 -69 -1 -15 -5 -30 -9
-33 -4 -4 -3 -18 2 -31 5 -13 6 -26 1 -28 -8 -5 -5 -120 4 -143 2 -7 0 -13 -6
-13 -6 0 -7 -5 -4 -10 6 -9 16 -85 18 -132 1 -10 4 -18 7 -18 4 0 6 -10 5 -22
-1 -13 4 -38 12 -55 7 -18 11 -33 9 -33 -3 0 7 -33 20 -72 14 -40 27 -79 28
-86 1 -7 8 -18 14 -24 7 -7 12 -17 12 -24 0 -10 35 -78 85 -168 41 -71 134
-186 215 -264 58 -57 194 -164 242 -191 21 -11 54 -30 73 -41 19 -11 35 -16
35 -12 0 4 4 2 8 -3 11 -15 136 -70 182 -80 8 -2 29 -8 45 -15 17 -6 31 -11
33 -11 1 1 3 1 5 0 1 0 11 -2 22 -4 11 -2 38 -8 61 -13 22 -5 50 -8 62 -7 12
1 22 -1 22 -5 0 -3 37 -7 83 -9 135 -7 28504 -5 28602 2 50 3 91 6 93 7 1 2
11 4 22 5 11 1 21 3 23 5 1 1 11 3 22 4 11 1 38 6 60 11 22 5 43 8 48 7 4 -1
7 3 7 10 0 6 3 9 6 6 5 -5 110 29 164 53 14 7 41 19 60 28 35 16 190 110 200
121 3 3 17 13 31 22 56 35 203 185 268 272 57 76 133 198 137 216 0 3 12 30
26 60 23 52 63 164 73 206 21 92 31 145 29 158 -1 9 1 16 5 16 3 0 7 74 8 165
1 97 -3 165 -8 165 -6 0 -5 8 1 20 6 11 7 20 2 20 -5 0 -9 6 -9 13 0 18 -11
88 -19 117 -3 14 -7 33 -7 43 -1 9 -4 17 -7 17 -3 0 -7 12 -8 26 -1 15 -8 34
-15 42 -6 8 -11 18 -11 21 2 6 -9 38 -23 71 -3 8 -5 18 -5 23 1 4 -2 7 -8 7
-6 0 -9 3 -8 8 5 17 -105 213 -123 220 -5 2 -9 8 -9 14 0 5 -6 15 -12 23 -7 7
-24 28 -38 46 -26 34 -171 182 -208 212 -12 9 -26 17 -31 17 -5 0 -11 4 -13 8
-12 30 -308 192 -349 192 -11 0 -19 5 -19 10 0 6 -9 10 -21 10 -11 0 -28 4
-37 9 -9 5 -30 11 -47 14 -16 3 -37 8 -45 11 -8 3 -31 8 -50 11 -19 3 -46 8
-60 11 -35 8 -28704 11 -28765 3z"/>
</g>
</svg>
