<svg width="23" height="18" viewBox="0 0 23 18" fill="none" xmlns="http://www.w3.org/2000/svg">
<path d="M15.9947 9.06438L21.8311 2.89138V15.1669L15.9947 9.06438ZM8.47406 10.1098L10.5236 12.2756C10.8453 12.6083 11.2646 12.8093 11.7229 12.8093H11.7391H11.7514C12.2107 12.8093 12.6301 12.6072 12.9555 12.2722L12.9527 12.2745L15.0022 10.1086L21.2324 16.6224H2.24673L8.47406 10.1098ZM2.23819 1.42783H21.2438L12.1148 11.0801C12.0122 11.1789 11.8851 11.2326 11.7543 11.2326H11.741H11.7286C11.5973 11.2328 11.4698 11.1786 11.3671 11.0789L11.3681 11.0801L2.23819 1.42783ZM1.64895 2.89022L7.48441 9.06323L1.64895 15.1623V2.89022ZM22.1442 0.0705562C21.9165 -0.0680591 21.6489 -0.148918 21.3652 -0.148918H2.11768C1.84267 -0.148838 1.57143 -0.0709347 1.32539 0.0786421L1.33583 0.0728663C1.04128 0.249729 0.79322 0.523342 0.61968 0.862795C0.446141 1.20225 0.354032 1.59402 0.35376 1.99384V16.0541C0.354262 16.6231 0.540165 17.1686 0.870677 17.571C1.20119 17.9734 1.64932 18.1997 2.11673 18.2003H21.3624C21.8298 18.1997 22.2779 17.9734 22.6084 17.571C22.9389 17.1686 23.1248 16.6231 23.1253 16.0541V1.99384C23.1253 1.15407 22.7278 0.426336 22.149 0.076332L22.1385 0.0705562H22.1442Z" fill="#3A3A38"/>
</svg>
