<svg width="12" height="16" viewBox="0 0 12 16" fill="none" xmlns="http://www.w3.org/2000/svg">
<path d="M6 9.5C7.6545 9.5 9 8.1545 9 6.5C9 4.8455 7.6545 3.5 6 3.5C4.3455 3.5 3 4.8455 3 6.5C3 8.1545 4.3455 9.5 6 9.5ZM6 5C6.82725 5 7.5 5.67275 7.5 6.5C7.5 7.32725 6.82725 8 6 8C5.17275 8 4.5 7.32725 4.5 6.5C4.5 5.67275 5.17275 5 6 5Z" fill="white"/>
<path d="M5.56507 15.3606C5.692 15.4512 5.84408 15.5 6.00007 15.5C6.15605 15.5 6.30813 15.4512 6.43507 15.3606C6.66307 15.1993 12.0218 11.3301 12.0001 6.50009C12.0001 3.19184 9.30831 0.500092 6.00007 0.500092C2.69182 0.500092 6.60283e-05 3.19184 6.60283e-05 6.49634C-0.021684 11.3301 5.33707 15.1993 5.56507 15.3606ZM6.00007 2.00009C8.48182 2.00009 10.5001 4.01834 10.5001 6.50384C10.5158 9.83234 7.20907 12.8211 6.00007 13.8013C4.79182 12.8203 1.48432 9.83084 1.50007 6.50009C1.50007 4.01834 3.51832 2.00009 6.00007 2.00009Z" fill="white"/>
</svg>
