<svg width="84" height="84" viewBox="0 0 84 84" fill="none" xmlns="http://www.w3.org/2000/svg">
<path d="M36.4832 26.0692C40.1509 26.6274 44.1267 26.6261 47.7939 26.0653L50.943 17.9832L33.3276 17.9893L36.4832 26.0692ZM45.7485 29.2684L51.3083 75.678L41.9741 83.7791L32.6354 75.6846L38.1637 29.2345C39.4711 29.3657 40.7998 29.4392 42.1399 29.4388C43.354 29.4383 44.5594 29.3772 45.7485 29.2684Z" fill="black"/>
<path d="M29.4152 12.1706H54.5285L56.9281 8.36084H27.0157L29.4152 12.1706ZM83.3077 12.0412C82.1098 7.95147 79.1634 4.65852 75.3507 2.5307C73.448 1.46944 71.357 0.720253 69.1892 0.334213C68.4138 0.195999 67.6325 0.108849 66.8451 0.0630722C66.5167 0.0441437 65.6559 0.00320435 65.5229 0.000564575V0.00012207H18.4758L18.4754 0.000564575C18.3428 0.00320435 17.4829 0.0441437 17.1546 0.0630722C16.3677 0.108849 15.5858 0.195999 14.8104 0.334213C12.6427 0.720253 10.5516 1.46944 8.6494 2.5307C4.83622 4.65852 1.88987 7.95147 0.692388 12.0412C-0.46168 15.9816 0.122511 20.2905 2.25331 23.8397C4.41089 27.4337 8.18482 30.0197 12.5189 30.5792C16.5764 31.103 20.8066 29.7627 23.6698 26.9592C26.4144 24.2719 27.5042 20.4344 26.4739 16.8048C25.494 13.3507 22.6455 10.4301 18.8661 9.8099C15.4066 9.24251 11.702 10.6638 10.0062 13.6716C8.98237 15.4882 8.86599 17.7441 9.95125 19.562C10.9515 21.2382 12.8579 22.4518 14.9287 22.2783C15.9991 22.189 17.0655 21.7572 17.8025 20.9996C18.0099 20.7862 18.1904 20.5489 18.3359 20.2932C18.4394 20.1105 18.4998 20.0717 18.317 19.9617C18.1036 19.8336 17.9748 19.6875 17.7628 19.838C17.5102 20.0176 17.2742 20.2249 17.01 20.3882C16.5963 20.6435 16.0231 20.7487 15.5387 20.7663C14.5079 20.8033 13.625 20.3746 12.9184 19.6813C12.1352 18.8974 11.8184 17.4839 12.1703 16.4024C12.5009 15.3869 13.2749 14.5273 14.2212 13.9797C15.3092 13.3502 16.6286 13.172 17.869 13.4167C18.9654 13.6328 19.9661 14.2508 20.6644 14.8931C21.3132 15.5789 21.8327 16.3276 22.1532 17.2049C22.8538 19.124 22.5587 21.2981 21.3118 22.9536C20.0585 24.6175 18.0316 25.7298 15.9299 26.0793C13.6924 26.4508 11.3542 25.9732 9.48944 24.7359C7.77612 23.5993 6.46919 21.913 5.71459 20.0665C4.20493 16.3721 4.95953 12.0398 7.61171 8.99117C9.6677 6.6283 12.5651 5.09693 15.6722 4.40013C16.9449 4.11446 18.2546 4.00749 19.562 4.00749H64.4376C65.745 4.00749 67.0547 4.11446 68.3275 4.40013C71.4346 5.09693 74.3324 6.6283 76.3879 8.99117C79.0401 12.0398 79.7947 16.3721 78.2851 20.0665C77.5309 21.913 76.224 23.5993 74.5107 24.7359C72.6454 25.9732 70.3073 26.4508 68.0703 26.0793C65.9681 25.7298 63.9412 24.6175 62.6878 22.9536C61.4414 21.2981 61.1458 19.124 61.8469 17.2049C62.1669 16.3276 62.6869 15.5789 63.3358 14.8931C64.0336 14.2508 65.0343 13.6328 66.1311 13.4167C67.3711 13.172 68.6909 13.3502 69.7785 13.9797C70.7247 14.5273 71.4987 15.3869 71.8294 16.4024C72.1813 17.4839 71.8645 18.8974 71.0817 19.6813C70.3747 20.3746 69.4922 20.8033 68.4609 20.7663C67.9765 20.7487 67.4034 20.6435 66.9901 20.3882C66.7255 20.2249 66.4895 20.0176 66.2369 19.838C66.0249 19.6875 65.896 19.8336 65.6827 19.9617C65.4998 20.0717 65.5603 20.1105 65.6637 20.2932C65.8092 20.5489 65.9898 20.7862 66.1976 20.9996C66.9342 21.7572 68.0005 22.189 69.071 22.2783C71.1422 22.4518 73.0481 21.2382 74.0489 19.562C75.1341 17.7441 75.0177 15.4882 73.9934 13.6716C72.2977 10.6638 68.593 9.24251 65.134 9.8099C61.3541 10.4301 58.5057 13.3507 57.5257 16.8048C56.4959 20.4344 57.5853 24.2719 60.3298 26.9592C63.1931 29.7627 67.4232 31.103 71.4807 30.5792C75.8148 30.0197 79.5888 27.4337 81.7463 23.8397C83.8771 20.2905 84.4618 15.9816 83.3077 12.0412ZM25.8251 36.2179C25.8251 34.5985 24.448 33.2859 22.7494 33.2859C21.0504 33.2859 19.6733 34.5985 19.6733 36.2179V71.5918H21.297L25.8251 36.2179ZM58.1182 36.2179C58.1182 34.5985 59.4958 33.2859 61.1943 33.2859C62.8933 33.2859 64.2705 34.5985 64.2705 36.2179V71.5918H62.6467L58.1182 36.2179Z" fill="black"/>
</svg>
