<svg width="85" height="85" viewBox="0 0 85 85" fill="none" xmlns="http://www.w3.org/2000/svg">
<path d="M48.4383 36.2727C50.1978 36.5826 52.1051 36.5817 53.8646 36.2704L55.3752 31.7841L46.9245 31.7877L48.4383 36.2727ZM52.8832 38.0488L55.5506 63.8096L51.0725 66.9103L46.5924 63.8131L49.2444 38.03C49.8718 38.1025 50.5093 38.1433 51.1521 38.1433C51.7348 38.1428 52.3126 38.1088 52.8832 38.0488ZM65.4794 36.2655C67.2393 36.5754 69.1462 36.575 70.9057 36.2637L72.4167 31.7774L63.9656 31.7805L65.4794 36.2655ZM69.9247 38.0416L72.5917 63.8028L68.114 66.9031L63.6339 63.8064L66.2859 38.0228C66.9133 38.0958 67.5504 38.1365 68.1932 38.1361C68.7759 38.1361 69.3541 38.1021 69.9247 38.0416ZM31.3972 36.2799C33.1567 36.5893 35.0641 36.5889 36.8231 36.2776L38.3341 31.7913L29.8834 31.7944L31.3972 36.2799ZM35.8421 38.0555L38.5091 63.8167L34.0314 66.9175L29.5513 63.8203L32.2033 38.0367C32.8307 38.1097 33.4678 38.1504 34.1106 38.15C34.6933 38.15 35.2716 38.1159 35.8421 38.0555ZM14.3557 36.2866C16.1152 36.5965 18.0226 36.5956 19.782 36.2843L21.2926 31.798L12.8419 31.8016L14.3557 36.2866ZM18.8006 38.0626L21.468 63.8234L16.9899 66.9242L12.5098 63.827L15.1618 38.0438C15.7892 38.1164 16.4267 38.1571 17.0695 38.1571C17.6522 38.1567 18.2301 38.1227 18.8006 38.0626Z" fill="black"/>
<path d="M12.2338 15.9898L72.7649 15.9614L42.4961 4.26896L12.2338 15.9898ZM0.610519 16.722L42.4949 0.499977L84.3895 16.6827V16.6843C84.3895 18.2742 83.3771 19.5629 82.1281 19.5635L2.87395 19.6007C1.62407 19.6012 0.610519 18.312 0.610519 16.722ZM76.9507 22.3791L8.04037 22.4116C8.04077 24.1669 9.15949 25.5895 10.5389 25.5885L74.4542 25.5585C75.8336 25.558 76.9511 24.1344 76.9507 22.3791ZM71.1147 84.2521L71.1134 80.3606L13.9227 80.387L13.9239 84.2789L71.1147 84.2521ZM2.56249 84.2789C2.56209 82.1294 3.93095 80.3865 5.61979 80.3859L7.61562 80.3849L7.6144 77.2272C7.61399 75.0502 9.00031 73.2851 10.7107 73.2841L74.3214 73.2541C76.0322 73.2536 77.4193 75.0172 77.4197 77.1941L77.4209 80.3518L79.4159 80.3508C81.1052 80.3503 82.4749 82.0916 82.4757 84.2412L74.3636 84.2453L74.3616 77.1461L10.6729 77.176L10.6749 84.2753L2.56249 84.2789Z" fill="black"/>
</svg>
