<svg width="97" height="79" viewBox="0 0 97 79" fill="none" xmlns="http://www.w3.org/2000/svg">
<g clip-path="url(#clip0_7_409)">
<path d="M95.3364 47.9208C95.7113 47.9208 96.0709 47.8004 96.336 47.5861C96.6011 47.3719 96.75 47.0812 96.75 46.7782V40.6844C96.75 40.3814 96.6011 40.0908 96.336 39.8765C96.0709 39.6622 95.7113 39.5419 95.3364 39.5419H1.66357C1.28867 39.5419 0.929123 39.6622 0.664026 39.8765C0.39893 40.0908 0.25 40.3814 0.25 40.6844L0.25 46.7782C0.25 47.0812 0.39893 47.3719 0.664026 47.5861C0.929123 47.8004 1.28867 47.9208 1.66357 47.9208H3.73682V70.0106H1.66357C1.28867 70.0106 0.929123 70.131 0.664026 70.3453C0.39893 70.5595 0.25 70.8502 0.25 71.1532L0.25 77.2469C0.25 77.55 0.39893 77.8406 0.664026 78.0549C0.929123 78.2691 1.28867 78.3895 1.66357 78.3895H95.3364C95.7113 78.3895 96.0709 78.2691 96.336 78.0549C96.6011 77.8406 96.75 77.55 96.75 77.2469V71.1532C96.75 70.8502 96.6011 70.5595 96.336 70.3453C96.0709 70.131 95.7113 70.0106 95.3364 70.0106H93.2632V47.9208H95.3364ZM3.07715 41.827H93.9229V45.6356H3.07715V41.827ZM93.9229 76.1044H3.07715V72.2958H93.9229V76.1044ZM90.436 70.0106H6.56396V47.9208H90.436V70.0106Z" fill="black"/>
<path d="M7.03516 34.6669H40.9609C41.8354 34.6661 42.6738 34.3849 43.2921 33.8851C43.9105 33.3853 44.2583 32.7077 44.2593 32.0009C44.2537 28.5207 42.879 25.1321 40.3338 22.3251C37.7887 19.518 34.205 17.438 30.1009 16.3856C32.0152 15.3312 33.4612 13.8087 34.2267 12.0414C34.9922 10.2742 35.0369 8.35515 34.3543 6.56582C33.6718 4.7765 32.2978 3.21105 30.434 2.09906C28.5702 0.987077 26.3146 0.387085 23.998 0.387085C21.6815 0.387085 19.4259 0.987077 17.5621 2.09906C15.6983 3.21105 14.3243 4.7765 13.6418 6.56582C12.9592 8.35515 13.0039 10.2742 13.7694 12.0414C14.5349 13.8087 15.9809 15.3312 17.8952 16.3856C13.7911 17.438 10.2074 19.518 7.66229 22.3251C5.11713 25.1321 3.74239 28.5207 3.73682 32.0009C3.73781 32.7077 4.08564 33.3853 4.70398 33.8851C5.32232 34.3849 6.16069 34.6661 7.03516 34.6669ZM15.9878 9.14931C15.9878 7.86876 16.4576 6.61696 17.3378 5.55221C18.2179 4.48747 19.469 3.6576 20.9327 3.16755C22.3963 2.67751 24.0069 2.54929 25.5608 2.79911C27.1146 3.04894 28.5419 3.66558 29.6622 4.57107C30.7824 5.47656 31.5453 6.63023 31.8544 7.88618C32.1635 9.14213 32.0048 10.444 31.3986 11.627C30.7923 12.8101 29.7656 13.8213 28.4483 14.5328C27.131 15.2442 25.5823 15.6239 23.998 15.6239C21.8744 15.6219 19.8384 14.9391 18.3367 13.7253C16.835 12.5115 15.9903 10.8659 15.9878 9.14931ZM23.998 17.9091C28.6202 17.9135 33.0514 19.3996 36.3197 22.0414C39.5881 24.6831 41.4266 28.2649 41.4321 32.0009C41.4321 32.1019 41.3825 32.1988 41.2941 32.2702C41.2058 32.3416 41.0859 32.3817 40.9609 32.3817H7.03516C6.91019 32.3817 6.79034 32.3416 6.70197 32.2702C6.61361 32.1988 6.56396 32.1019 6.56396 32.0009C6.56945 28.2649 8.40801 24.6831 11.6763 22.0414C14.9447 19.3996 19.3759 17.9135 23.998 17.9091Z" fill="black"/>
<path d="M56.0391 34.6669H89.9648C90.8393 34.6661 91.6777 34.3849 92.296 33.8851C92.9144 33.3853 93.2622 32.7077 93.2632 32.0009C93.2576 28.5207 91.8829 25.1321 89.3377 22.3251C86.7926 19.518 83.2089 17.438 79.1048 16.3856C81.0192 15.3312 82.4651 13.8087 83.2306 12.0414C83.9961 10.2742 84.0408 8.35515 83.3582 6.56582C82.6757 4.7765 81.3017 3.21105 79.4379 2.09906C77.5741 0.987077 75.3185 0.387085 73.002 0.387085C70.6854 0.387085 68.4298 0.987077 66.566 2.09906C64.7022 3.21105 63.3282 4.7765 62.6457 6.56582C61.9631 8.35515 62.0078 10.2742 62.7733 12.0414C63.5388 13.8087 64.9848 15.3312 66.8991 16.3856C62.795 17.438 59.2113 19.518 56.6662 22.3251C54.121 25.1321 52.7463 28.5207 52.7407 32.0009C52.7417 32.7077 53.0895 33.3853 53.7079 33.8851C54.3262 34.3849 55.1646 34.6661 56.0391 34.6669ZM64.9917 9.14931C64.9917 7.86876 65.4615 6.61696 66.3417 5.55221C67.2218 4.48747 68.4729 3.6576 69.9366 3.16755C71.4002 2.67751 73.0108 2.54929 74.5647 2.79911C76.1185 3.04894 77.5458 3.66558 78.6661 4.57107C79.7863 5.47656 80.5492 6.63023 80.8583 7.88618C81.1674 9.14213 81.0087 10.444 80.4025 11.627C79.7962 12.8101 78.7695 13.8213 77.4522 14.5328C76.1349 15.2442 74.5862 15.6239 73.002 15.6239C70.8783 15.6219 68.8423 14.9391 67.3406 13.7253C65.8389 12.5115 64.9942 10.8659 64.9917 9.14931ZM73.002 17.9091C77.6241 17.9135 82.0553 19.3996 85.3237 22.0414C88.592 24.6831 90.4305 28.2649 90.436 32.0009C90.436 32.1019 90.3864 32.1988 90.298 32.2702C90.2097 32.3416 90.0898 32.3817 89.9648 32.3817H56.0391C55.9141 32.3817 55.7942 32.3416 55.7059 32.2702C55.6175 32.1988 55.5679 32.1019 55.5679 32.0009C55.5734 28.2649 57.4119 24.6831 60.6803 22.0414C63.9486 19.3996 68.3798 17.9135 73.002 17.9091Z" fill="black"/>
<path d="M14.5742 66.9637C14.9491 66.9637 15.3087 66.8434 15.5738 66.6291C15.8389 66.4148 15.9878 66.1242 15.9878 65.8212V52.1102C15.9878 51.8072 15.8389 51.5166 15.5738 51.3023C15.3087 51.088 14.9491 50.9677 14.5742 50.9677C14.1993 50.9677 13.8398 51.088 13.5747 51.3023C13.3096 51.5166 13.1606 51.8072 13.1606 52.1102V65.8212C13.1606 66.1242 13.3096 66.4148 13.5747 66.6291C13.8398 66.8434 14.1993 66.9637 14.5742 66.9637Z" fill="black"/>
<path d="M25.8828 66.9637C26.2577 66.9637 26.6173 66.8434 26.8824 66.6291C27.1475 66.4148 27.2964 66.1242 27.2964 65.8212V52.1102C27.2964 51.8072 27.1475 51.5166 26.8824 51.3023C26.6173 51.088 26.2577 50.9677 25.8828 50.9677C25.5079 50.9677 25.1484 51.088 24.8833 51.3023C24.6182 51.5166 24.4692 51.8072 24.4692 52.1102V65.8212C24.4692 66.1242 24.6182 66.4148 24.8833 66.6291C25.1484 66.8434 25.5079 66.9637 25.8828 66.9637Z" fill="black"/>
<path d="M37.1914 66.9637C37.5663 66.9637 37.9259 66.8434 38.191 66.6291C38.4561 66.4148 38.605 66.1242 38.605 65.8212V52.1102C38.605 51.8072 38.4561 51.5166 38.191 51.3023C37.9259 51.088 37.5663 50.9677 37.1914 50.9677C36.8165 50.9677 36.457 51.088 36.1919 51.3023C35.9268 51.5166 35.7778 51.8072 35.7778 52.1102V65.8212C35.7778 66.1242 35.9268 66.4148 36.1919 66.6291C36.457 66.8434 36.8165 66.9637 37.1914 66.9637Z" fill="black"/>
<path d="M48.5 66.9637C48.8749 66.9637 49.2345 66.8434 49.4996 66.6291C49.7646 66.4148 49.9136 66.1242 49.9136 65.8212V52.1102C49.9136 51.8072 49.7646 51.5166 49.4996 51.3023C49.2345 51.088 48.8749 50.9677 48.5 50.9677C48.1251 50.9677 47.7655 51.088 47.5005 51.3023C47.2354 51.5166 47.0864 51.8072 47.0864 52.1102V65.8212C47.0864 66.1242 47.2354 66.4148 47.5005 66.6291C47.7655 66.8434 48.1251 66.9637 48.5 66.9637Z" fill="black"/>
<path d="M59.8086 66.9637C60.1835 66.9637 60.543 66.8434 60.8081 66.6291C61.0732 66.4148 61.2222 66.1242 61.2222 65.8212V52.1102C61.2222 51.8072 61.0732 51.5166 60.8081 51.3023C60.543 51.088 60.1835 50.9677 59.8086 50.9677C59.4337 50.9677 59.0741 51.088 58.809 51.3023C58.5439 51.5166 58.395 51.8072 58.395 52.1102V65.8212C58.395 66.1242 58.5439 66.4148 58.809 66.6291C59.0741 66.8434 59.4337 66.9637 59.8086 66.9637Z" fill="black"/>
<path d="M71.1172 66.9637C71.4921 66.9637 71.8516 66.8434 72.1167 66.6291C72.3818 66.4148 72.5308 66.1242 72.5308 65.8212V52.1102C72.5308 51.8072 72.3818 51.5166 72.1167 51.3023C71.8516 51.088 71.4921 50.9677 71.1172 50.9677C70.7423 50.9677 70.3827 51.088 70.1176 51.3023C69.8525 51.5166 69.7036 51.8072 69.7036 52.1102V65.8212C69.7036 66.1242 69.8525 66.4148 70.1176 66.6291C70.3827 66.8434 70.7423 66.9637 71.1172 66.9637Z" fill="black"/>
<path d="M82.4258 66.9637C82.8007 66.9637 83.1602 66.8434 83.4253 66.6291C83.6904 66.4148 83.8394 66.1242 83.8394 65.8212V52.1102C83.8394 51.8072 83.6904 51.5166 83.4253 51.3023C83.1602 51.088 82.8007 50.9677 82.4258 50.9677C82.0509 50.9677 81.6913 51.088 81.4262 51.3023C81.1611 51.5166 81.0122 51.8072 81.0122 52.1102V65.8212C81.0122 66.1242 81.1611 66.4148 81.4262 66.6291C81.6913 66.8434 82.0509 66.9637 82.4258 66.9637Z" fill="black"/>
</g>
<defs>
<clipPath id="clip0_7_409">
<rect width="96.5" height="78" fill="white" transform="translate(0.25 0.389526)"/>
</clipPath>
</defs>
</svg>
