<svg width="91" height="81" viewBox="0 0 91 81" fill="none" xmlns="http://www.w3.org/2000/svg">
<path d="M45.5 8.67534C39.7452 8.67534 34.1098 9.06866 28.7419 9.81637V13.4543C34.0953 12.6998 39.733 12.303 45.5 12.303C51.2671 12.303 56.9047 12.6998 62.2582 13.4543V9.81637C56.8902 9.06866 51.2552 8.67534 45.5 8.67534ZM62.2582 76.6672H28.7419V80.4015H62.2582V76.6672ZM59.1508 69.1688H31.8489V72.903H59.1508V69.1688ZM31.8489 20.3228H59.1508V16.5885H31.8489V20.3228ZM54.176 24.087H50.9396V65.4046H54.176V24.087ZM47.1181 24.087H43.8816V65.4046H47.1181V24.087ZM40.0601 65.4046H36.8236V24.087H40.0601V65.4046Z" fill="black"/>
<path d="M77.9031 40.8473L77.1745 11.7099C77.301 11.7172 77.4268 11.7164 77.5518 11.7035L83.4876 40.9834C81.6541 40.9017 79.7882 40.8602 77.9031 40.8473ZM70.344 40.9834L76.3214 11.5002C76.4308 11.549 76.541 11.5884 76.6519 11.6201L75.9211 40.8473C74.0386 40.8602 72.1753 40.9017 70.344 40.9834ZM15.0789 40.8473L14.3481 11.6201C14.459 11.5884 14.5692 11.549 14.6786 11.5002L20.656 40.9834C18.825 40.9017 16.9614 40.8602 15.0789 40.8473ZM7.51235 40.9834L13.4486 11.7035C13.5732 11.7164 13.699 11.7172 13.8254 11.7099L13.0969 40.8473C11.2118 40.8602 9.34593 40.9017 7.51235 40.9834ZM85.8802 41.1165L78.2584 11.5225C78.7455 11.3192 79.181 10.9601 79.507 10.473C80.4964 10.8561 81.4819 11.2554 82.4631 11.6753C82.521 11.5392 82.7257 11.1942 82.689 11.0705C82.6248 10.8518 81.9212 10.5227 81.7602 10.4101C77.4639 7.39962 72.6464 5.30631 67.7975 3.83016C62.6094 2.25086 57.3012 1.2836 51.9496 0.861168C41.3206 0.0223007 30.4734 1.15349 20.2806 4.81283C17.8124 5.69878 15.3515 6.75721 13.0253 8.06301C11.9715 8.6545 10.9165 9.25797 9.90383 9.93977C9.43236 10.2569 8.96942 10.5937 8.50499 10.925C8.23791 11.1155 8.27056 11.1039 8.4245 11.4296C8.59328 11.7866 8.68565 11.6072 9.02395 11.4626C9.54661 11.2396 10.0644 11.0012 10.5912 10.7915C10.8857 10.6746 11.181 10.5621 11.4759 10.4474C11.8038 10.9473 12.246 11.3153 12.7415 11.5225L5.11976 41.1165C3.71092 41.203 2.31357 41.3018 0.942932 41.4272C3.79994 46.8011 8.61628 50.3402 14.0881 50.3402C19.5595 50.3402 24.3758 46.8011 27.2329 41.4272C25.857 41.3014 24.4545 41.2025 23.0404 41.1161L15.317 11.0996C15.9936 10.5308 16.4024 9.64317 16.4495 8.69944C18.0984 8.1927 19.7628 7.74545 21.4313 7.35469C31.8129 4.92283 42.5102 4.23718 53.0773 4.93823C58.4278 5.29304 63.7523 6.03432 69.0119 7.22842C70.8804 7.65257 72.7247 8.15974 74.552 8.73368C74.6072 9.66457 75.0145 10.5377 75.683 11.0996L67.9596 41.1161C66.5455 41.2025 65.143 41.3014 63.7671 41.4272C66.6242 46.8011 71.4405 50.3402 76.9119 50.3402C82.3837 50.3402 87.2001 46.8011 90.0571 41.4272C88.6864 41.3018 87.2891 41.203 85.8802 41.1165Z" fill="black"/>
</svg>
