<svg width="86" height="85" viewBox="0 0 86 85" fill="none" xmlns="http://www.w3.org/2000/svg">
<g clip-path="url(#clip0_7_447)">
<path d="M83.6323 14.3172C82.7741 13.8219 81.7543 13.6876 80.7971 13.9438C79.8398 14.2 79.0235 14.8257 78.5273 15.6835L76.1035 19.882C75.5555 19.8368 75.006 19.9482 74.519 20.2033C74.0319 20.4585 73.6274 20.8468 73.3526 21.323L71.0533 25.3074V12.4512H79.7691C80.0994 12.4512 80.4161 12.32 80.6496 12.0865C80.8831 11.853 81.0143 11.5363 81.0143 11.2061V6.22559C81.0125 4.57557 80.3565 2.99359 79.1901 1.82654C78.0236 0.659497 76.442 0.00263628 74.792 0H16.6865C15.0359 0.00175782 13.4535 0.65823 12.2863 1.82537C11.1192 2.99252 10.4627 4.575 10.4609 6.22559V72.5488H1.74512C1.41489 72.5488 1.09819 72.68 0.864686 72.9135C0.631182 73.147 0.5 73.4637 0.5 73.7939L0.5 78.7744C0.501758 80.425 1.15823 82.0075 2.32537 83.1746C3.49252 84.3418 5.075 84.9982 6.72559 85H64.8311C66.4816 84.9982 68.0641 84.3418 69.2313 83.1746C70.3984 82.0075 71.0549 80.425 71.0566 78.7744V46.8845L71.0799 46.8479L80.4183 30.673L82.2162 31.709C82.3112 31.7642 82.3804 31.8547 82.4087 31.9608C82.437 32.0669 82.4221 32.1799 82.3673 32.2751L77.3868 40.9079C77.3051 41.0496 77.252 41.206 77.2307 41.3683C77.2094 41.5305 77.2203 41.6953 77.2627 41.8533C77.3051 42.0113 77.3782 42.1594 77.4778 42.2892C77.5774 42.4189 77.7017 42.5278 77.8434 42.6096C77.9851 42.6913 78.1415 42.7444 78.3037 42.7657C78.4659 42.787 78.6307 42.7761 78.7887 42.7337C78.9468 42.6913 79.0949 42.6182 79.2246 42.5186C79.3544 42.419 79.4633 42.2947 79.545 42.153L84.5255 33.5202C84.9105 32.8531 85.0149 32.0604 84.8157 31.3164C84.6164 30.5723 84.1299 29.9379 83.463 29.5524L81.665 28.5148L82.7026 26.7169C82.978 26.2417 83.1125 25.6979 83.0905 25.1491C83.0684 24.6002 82.8907 24.069 82.5781 23.6174L85.002 19.4238C85.4975 18.565 85.6316 17.5445 85.3747 16.5869C85.1179 15.6292 84.4911 14.8128 83.6323 14.3172ZM74.792 2.49023C75.7824 2.49111 76.732 2.88494 77.4323 3.58526C78.1326 4.28559 78.5265 5.23518 78.5273 6.22559V9.96094H71.0566V6.22559C71.0575 5.23518 71.4513 4.28559 72.1517 3.58526C72.852 2.88494 73.8016 2.49111 74.792 2.49023ZM6.72559 82.5098C5.73518 82.5089 4.78559 82.1151 4.08526 81.4147C3.38494 80.7144 2.99111 79.7648 2.99023 78.7744V75.0391H58.6055V78.7744C58.604 80.1222 59.0423 81.4337 59.8539 82.5098H6.72559ZM64.8311 82.5098C63.8406 82.5089 62.8911 82.1151 62.1907 81.4147C61.4904 80.7144 61.0966 79.7648 61.0957 78.7744V73.7939C61.0957 73.4637 60.9645 73.147 60.731 72.9135C60.4975 72.68 60.1808 72.5488 59.8506 72.5488H12.9512V6.22559C12.9521 5.23518 13.3459 4.28559 14.0462 3.58526C14.7465 2.88494 15.6961 2.49111 16.6865 2.49023H69.8115C69.0011 3.56673 68.564 4.87816 68.5664 6.22559V29.6188L61.7349 41.4524C61.5421 41.783 61.4171 42.1486 61.3672 42.528C61.3173 42.9074 61.3436 43.293 61.4443 43.6621C61.4891 43.8283 61.5492 43.99 61.6236 44.1452L54.9066 55.7779C52.9102 59.2398 51.8665 63.1687 51.8818 67.1649C51.884 67.3821 51.943 67.5949 52.0529 67.7822C52.1628 67.9695 52.3197 68.1249 52.5082 68.2328C52.6967 68.3407 52.9101 68.3974 53.1272 68.3974C53.3444 68.3973 53.5578 68.3404 53.7462 68.2324C57.2139 66.2487 60.0936 63.381 62.0918 59.9217L68.5664 48.714V78.7744C68.5655 79.7648 68.1717 80.7144 67.4714 81.4147C66.771 82.1151 65.8215 82.5089 64.8311 82.5098ZM63.5179 45.8353L66.3933 47.4954L59.9336 58.6766C58.5583 61.0584 56.7082 63.1322 54.4982 64.7693C54.8127 62.0372 55.6839 59.3986 57.0582 57.0164L63.5179 45.8353ZM68.9233 45.6028C68.8962 45.65 68.86 45.6914 68.8168 45.7245C68.7736 45.7577 68.7243 45.782 68.6717 45.796C68.6191 45.81 68.5642 45.8135 68.5103 45.8063C68.4563 45.7991 68.4043 45.7813 68.3572 45.7539L64.0408 43.2637C63.9935 43.2366 63.952 43.2005 63.9187 43.1574C63.8854 43.1143 63.8609 43.065 63.8467 43.0124C63.8325 42.9598 63.8289 42.9049 63.836 42.8508C63.8431 42.7968 63.8608 42.7447 63.8881 42.6976L75.5092 22.5682C75.5365 22.521 75.5728 22.4797 75.6161 22.4467C75.6594 22.4136 75.7088 22.3895 75.7615 22.3756C75.7966 22.3654 75.8329 22.3603 75.8694 22.3606C75.9424 22.3607 76.014 22.3802 76.077 22.4171L80.3934 24.9073C80.4883 24.9625 80.5575 25.0531 80.5859 25.1592C80.6142 25.2653 80.5993 25.3783 80.5444 25.4734L78.8843 28.3488L68.9233 45.6028ZM82.8438 18.1737L80.561 22.1282L78.4028 20.8831L80.6855 16.9336C80.8507 16.6474 81.1227 16.4385 81.4418 16.3529C81.7609 16.2673 82.101 16.3119 82.3872 16.4771C82.6734 16.6422 82.8823 16.9142 82.9679 17.2333C83.0535 17.5525 83.0089 17.8925 82.8438 18.1787V18.1737Z" fill="black"/>
<path d="M29.898 10.102C30.9256 12.2342 31.133 14.6699 30.4808 16.9452C29.9426 18.8893 30.0117 20.9516 30.6788 22.8554C31.3458 24.7592 32.5789 26.4136 34.2128 27.5967C35.3241 28.4012 36.5886 28.9691 37.9282 29.2652L40.4799 29.8529C40.6634 29.895 40.8541 29.895 41.0377 29.8529L43.5894 29.2652C44.9276 28.9709 46.1914 28.406 47.3031 27.605C48.9374 26.4218 50.1709 24.7672 50.8383 22.8631C51.5056 20.959 51.5749 18.8964 51.0368 16.9518C50.3846 14.6765 50.592 12.2409 51.6195 10.1086L51.749 9.848C51.9291 9.48457 51.9988 9.07632 51.9494 8.67372C51.9 8.27112 51.7337 7.89182 51.4711 7.58272C51.2084 7.27362 50.8609 7.04827 50.4716 6.93452C50.0823 6.82078 49.6681 6.82363 49.2804 6.94273L48.7425 7.10874C47.6885 7.43043 46.5923 7.5927 45.4902 7.59019C44.0292 7.58654 42.5831 7.29663 41.2336 6.73687C41.0821 6.67358 40.9196 6.64099 40.7555 6.64099C40.5913 6.64099 40.4288 6.67358 40.2773 6.73687C38.9299 7.29578 37.4861 7.58567 36.0273 7.59019C34.9261 7.59022 33.831 7.42571 32.7784 7.1021L32.2405 6.93608C31.8528 6.81699 31.4386 6.81414 31.0493 6.92788C30.66 7.04163 30.3125 7.26698 30.0498 7.57608C29.7872 7.88518 29.6209 8.26448 29.5715 8.66708C29.5221 9.06968 29.5917 9.47793 29.7719 9.84136L29.898 10.102ZM36.024 10.0804C37.6405 10.0767 39.2435 9.78663 40.7588 9.22378C42.273 9.78624 43.8749 10.0763 45.4902 10.0804C46.7147 10.079 47.9333 9.91142 49.1127 9.58237C48.0518 12.1237 47.8821 14.9492 48.6313 17.5993C49.0348 19.0589 48.982 20.607 48.4799 22.0357C47.9777 23.4644 47.0503 24.7051 45.8223 25.5913C44.9841 26.1935 44.0315 26.6178 43.0232 26.838L40.7521 27.361L38.4794 26.838C37.4762 26.6161 36.5289 26.1918 35.6953 25.5913C34.4664 24.7055 33.5381 23.4646 33.0353 22.0356C32.5325 20.6065 32.4794 19.0578 32.883 17.5976C33.6322 14.9476 33.4625 12.122 32.4016 9.58071C33.582 9.91061 34.8017 10.0787 36.0273 10.0804H36.024Z" fill="black"/>
<path d="M34.2294 33.9519C34.2292 34.1155 34.2612 34.2775 34.3237 34.4286C34.3862 34.5798 34.4779 34.7172 34.5936 34.8328C34.7093 34.9485 34.8466 35.0402 34.9978 35.1027C35.1489 35.1652 35.3109 35.1972 35.4745 35.197H61.5107C61.841 35.197 62.1577 35.0658 62.3912 34.8323C62.6247 34.5988 62.7559 34.2821 62.7559 33.9519C62.7559 33.6217 62.6247 33.305 62.3912 33.0715C62.1577 32.838 61.841 32.7068 61.5107 32.7068H35.4745C35.1443 32.7068 34.8276 32.838 34.5941 33.0715C34.3606 33.305 34.2294 33.6217 34.2294 33.9519Z" fill="black"/>
<path d="M18.3467 35.1953H27.4493C27.7795 35.1953 28.0962 35.0641 28.3297 34.8306C28.5633 34.5971 28.6944 34.2804 28.6944 33.9502C28.6944 33.62 28.5633 33.3033 28.3297 33.0698C28.0962 32.8363 27.7795 32.7051 27.4493 32.7051H18.3467C18.0165 32.7051 17.6998 32.8363 17.4662 33.0698C17.2327 33.3033 17.1016 33.62 17.1016 33.9502C17.1016 34.2804 17.2327 34.5971 17.4662 34.8306C17.6998 35.0641 18.0165 35.1953 18.3467 35.1953Z" fill="black"/>
<path d="M18.3467 43.4961H56.5303C56.8605 43.4961 57.1772 43.3649 57.4107 43.1314C57.6442 42.8979 57.7754 42.5812 57.7754 42.251C57.7754 41.9208 57.6442 41.6041 57.4107 41.3705C57.1772 41.137 56.8605 41.0059 56.5303 41.0059H18.3467C18.0165 41.0059 17.6998 41.137 17.4662 41.3705C17.2327 41.6041 17.1016 41.9208 17.1016 42.251C17.1016 42.5812 17.2327 42.8979 17.4662 43.1314C17.6998 43.3649 18.0165 43.4961 18.3467 43.4961Z" fill="black"/>
<path d="M18.3467 51.7969H53.21C53.5402 51.7969 53.8569 51.6657 54.0904 51.4322C54.3239 51.1987 54.4551 50.882 54.4551 50.5518C54.4551 50.2215 54.3239 49.9048 54.0904 49.6713C53.8569 49.4378 53.5402 49.3066 53.21 49.3066H18.3467C18.0165 49.3066 17.6998 49.4378 17.4662 49.6713C17.2327 49.9048 17.1016 50.2215 17.1016 50.5518C17.1016 50.882 17.2327 51.1987 17.4662 51.4322C17.6998 51.6657 18.0165 51.7969 18.3467 51.7969Z" fill="black"/>
<path d="M49.8896 57.6074H18.3467C18.0165 57.6074 17.6998 57.7386 17.4662 57.9721C17.2327 58.2056 17.1016 58.5223 17.1016 58.8525C17.1016 59.1828 17.2327 59.4995 17.4662 59.733C17.6998 59.9665 18.0165 60.0977 18.3467 60.0977H49.8896C50.2199 60.0977 50.5366 59.9665 50.7701 59.733C51.0036 59.4995 51.1348 59.1828 51.1348 58.8525C51.1348 58.5223 51.0036 58.2056 50.7701 57.9721C50.5366 57.7386 50.2199 57.6074 49.8896 57.6074Z" fill="black"/>
<path d="M31.6279 65.9082H18.3467C18.0165 65.9082 17.6998 66.0394 17.4662 66.2729C17.2327 66.5064 17.1016 66.8231 17.1016 67.1533C17.1016 67.4835 17.2327 67.8002 17.4662 68.0338C17.6998 68.2673 18.0165 68.3984 18.3467 68.3984H31.6279C31.9582 68.3984 32.2749 68.2673 32.5084 68.0338C32.7419 67.8002 32.873 67.4835 32.873 67.1533C32.873 66.8231 32.7419 66.5064 32.5084 66.2729C32.2749 66.0394 31.9582 65.9082 31.6279 65.9082Z" fill="black"/>
<path d="M49.8896 65.9082H36.6084C36.2782 65.9082 35.9615 66.0394 35.728 66.2729C35.4945 66.5064 35.3633 66.8231 35.3633 67.1533C35.3633 67.4835 35.4945 67.8002 35.728 68.0338C35.9615 68.2673 36.2782 68.3984 36.6084 68.3984H49.8896C50.2199 68.3984 50.5366 68.2673 50.7701 68.0338C51.0036 67.8002 51.1348 67.4835 51.1348 67.1533C51.1348 66.8231 51.0036 66.5064 50.7701 66.2729C50.5366 66.0394 50.2199 65.9082 49.8896 65.9082Z" fill="black"/>
</g>
<defs>
<clipPath id="clip0_7_447">
<rect width="85" height="85" fill="white" transform="translate(0.5)"/>
</clipPath>
</defs>
</svg>
