<svg width="84" height="69" viewBox="0 0 84 69" fill="none" xmlns="http://www.w3.org/2000/svg">
<path d="M14.4775 7.62939e-06H69.5222V3.07385H14.4775V7.62939e-06ZM11.9642 5.97036L72.0358 5.9707C81.9866 5.9707 87.0025 18.5468 79.9596 25.8742C72.9163 33.2013 60.8291 27.9821 60.8291 17.63H63.7833C63.7833 25.2549 72.6861 29.0946 77.8705 23.7004C83.0543 18.3072 79.3653 9.04453 72.0358 9.04453H11.9642C4.63404 9.04453 0.944366 18.3072 6.12914 23.7004C11.3136 29.0946 20.2163 25.2556 20.2163 17.63H23.1708C23.1708 27.9828 11.0833 33.2013 4.04005 25.8742C-3.00226 18.5468 2.01336 5.9707 11.9642 5.9707V5.97036ZM54.8703 17.63H57.8244V59.9551H66.3943V63.029H54.8703V17.63ZM29.1297 17.63V63.029H17.6043V59.9551H26.1752V17.63H29.1297ZM34.8692 69H14.498V65.9265H31.9141V17.63H34.8683L34.8692 69ZM46.3473 69H37.6526V17.63H40.6078V65.9265H43.3922L43.3915 17.63H46.3473V69ZM52.0856 65.9265H69.5016V69H49.1314C49.1314 51.8769 49.1307 34.7535 49.1307 17.63H52.0856V65.9265ZM69.5222 17.63C69.5222 19.9537 72.2345 21.1204 73.812 19.4786C75.391 17.8365 74.2686 15.0152 72.0358 15.0152H11.9642C9.73134 15.0152 8.60962 17.8368 10.187 19.4786C11.7651 21.1204 14.4775 19.9537 14.4775 17.63H17.432C17.432 22.6799 11.5345 25.2275 8.0986 21.6521C4.6617 18.0764 7.11033 11.9414 11.9642 11.9414H72.0358C76.889 11.9414 79.3383 18.076 75.902 21.6521C72.4651 25.2275 66.568 22.6803 66.568 17.63H69.5222Z" fill="black"/>
</svg>
