<svg width="110" height="111" viewBox="0 0 110 111" fill="none" xmlns="http://www.w3.org/2000/svg">
<g clip-path="url(#clip0_7_460)">
<path d="M53.5455 63.0402C54.2514 63.0426 54.9493 62.8899 55.5897 62.5929C56.2301 62.2959 56.7974 61.8619 57.2516 61.3214L58.2893 60.0861L61.991 63.1949C63.1921 64.2002 64.7428 64.6882 66.3031 64.5516C67.8635 64.4151 69.3059 63.6652 70.3141 62.4665L84.1242 46.0074C84.6231 45.4131 85 44.7264 85.2334 43.9865C85.4669 43.2465 85.5522 42.4679 85.4845 41.6949C85.4169 40.922 85.1976 40.17 84.8393 39.4818C84.4809 38.7937 83.9904 38.1828 83.3959 37.6843L79.6942 34.5712L80.7297 33.3359C81.1489 32.8511 81.4676 32.2878 81.6671 31.6788C81.8666 31.0697 81.943 30.4271 81.8919 29.7883C81.8408 29.1494 81.6631 28.5271 81.3693 27.9575C81.0754 27.388 80.6713 26.8825 80.1803 26.4706C79.6893 26.0587 79.1213 25.7485 78.5094 25.5581C77.8974 25.3677 77.2537 25.3009 76.6157 25.3616C75.9777 25.4223 75.3581 25.6092 74.793 25.9115C74.2279 26.2138 73.7286 26.6255 73.324 27.1226L72.2885 28.3558L51.7151 11.0931L52.7506 9.85989C53.1587 9.37363 53.467 8.81174 53.658 8.20632C53.849 7.60089 53.9188 6.96378 53.8635 6.33137C53.8083 5.69895 53.629 5.08361 53.3359 4.52048C53.0429 3.95735 52.6417 3.45746 52.1555 3.04935C51.6692 2.64123 51.1073 2.3329 50.5019 2.14194C49.8965 1.95097 49.2594 1.88113 48.627 1.93639C47.9945 1.99165 47.3792 2.17094 46.8161 2.46401C46.2529 2.75708 45.753 3.1582 45.3449 3.64446L44.3094 4.87981L40.6055 1.77317C40.0113 1.27428 39.3246 0.897366 38.5846 0.663959C37.8447 0.430551 37.066 0.345228 36.2931 0.412865C35.5201 0.480501 34.7681 0.699771 34.0799 1.05815C33.3918 1.41652 32.781 1.90698 32.2824 2.50149L18.4766 18.9585C17.4707 20.1593 16.9824 21.7102 17.1189 23.2707C17.2555 24.8312 18.0057 26.2737 19.2049 27.2816L22.9088 30.3904L21.8711 31.6236C21.2785 32.3281 20.8993 33.1871 20.778 34.0997C20.6568 35.0123 20.7985 35.9405 21.1866 36.7753C21.5747 37.6101 22.1929 38.3168 22.9688 38.8124C23.7446 39.3079 24.6458 39.5717 25.5664 39.5728C25.7104 39.5728 25.8522 39.5728 25.9961 39.5534C26.6289 39.4993 27.2447 39.3206 27.8082 39.0274C28.3716 38.7343 28.8714 38.3326 29.2789 37.8454L30.3145 36.6101L36.4848 41.79L23.3664 57.4242C23.0389 57.1496 22.6158 57.0163 22.1901 57.0533C21.7643 57.0904 21.3707 57.2948 21.0955 57.6218L0.378136 82.3031C0.241942 82.4651 0.139015 82.6524 0.0752369 82.8543C0.0114588 83.0561 -0.0119204 83.2686 0.00643537 83.4795C0.0247911 83.6904 0.0845219 83.8956 0.182215 84.0834C0.279907 84.2712 0.413648 84.4379 0.575793 84.574L8.80861 91.4833C9.09945 91.7255 9.46571 91.8585 9.84415 91.8593C9.89142 91.8593 9.93868 91.8593 9.98595 91.8593C10.1968 91.8413 10.402 91.7817 10.5897 91.684C10.7774 91.5863 10.9438 91.4524 11.0795 91.29L31.7969 66.5937C32.0711 66.2659 32.2041 65.8427 32.1667 65.4169C32.1292 64.9911 31.9244 64.5976 31.5971 64.3228L44.7176 48.6865L50.8879 53.8663L49.8438 55.1017C49.021 56.0841 48.6217 57.3529 48.7337 58.6295C48.8457 59.906 49.4598 61.0859 50.441 61.9101C51.3098 62.6418 52.4097 63.0422 53.5455 63.0402ZM81.3248 40.1464C81.5952 40.373 81.8183 40.6506 81.9812 40.9634C82.1442 41.2762 82.2439 41.6181 82.2747 41.9695C82.3054 42.3209 82.2665 42.6749 82.1603 43.0113C82.0541 43.3477 81.8826 43.6598 81.6557 43.9298L67.8455 60.389C67.3874 60.9341 66.7316 61.275 66.0223 61.3371C65.3129 61.3991 64.6079 61.1771 64.0621 60.7199L60.3711 57.6111L77.6338 37.0398L81.3248 40.1464ZM75.7926 29.1894C76.0694 28.8693 76.461 28.671 76.8828 28.6372C77.3047 28.6034 77.7229 28.737 78.047 29.009C78.3712 29.281 78.5754 29.6696 78.6155 30.0909C78.6555 30.5121 78.5283 30.9323 78.2611 31.2605L54.7852 59.2439C54.6493 59.406 54.4827 59.5396 54.2951 59.6373C54.1075 59.735 53.9025 59.7947 53.6918 59.8131C53.4811 59.8314 53.2688 59.808 53.0671 59.7443C52.8654 59.6805 52.6783 59.5777 52.5164 59.4415C52.1898 59.1667 51.9853 58.7737 51.9479 58.3484C51.9104 57.9232 52.043 57.5005 52.3166 57.1728L75.7926 29.1894ZM21.2695 24.813C20.7245 24.3548 20.3835 23.6991 20.3215 22.9898C20.2594 22.2804 20.4814 21.5754 20.9387 21.0296L34.7488 4.57259C34.9754 4.30221 35.253 4.07914 35.5658 3.91616C35.8787 3.75317 36.2205 3.65346 36.5719 3.62273C36.9233 3.592 37.2773 3.63085 37.6137 3.73707C37.9501 3.84328 38.2622 4.01477 38.5322 4.24173L42.2383 7.34837L24.9756 27.9197L21.2695 24.813ZM26.8039 35.7701C26.6681 35.9326 26.5016 36.0667 26.3139 36.1648C26.1262 36.2628 25.9209 36.3229 25.71 36.3414C25.499 36.36 25.2864 36.3367 25.0844 36.273C24.8825 36.2092 24.6951 36.1062 24.533 35.9699C24.2062 35.6947 24.0017 35.3012 23.9643 34.8757C23.9269 34.4501 24.0595 34.027 24.3332 33.699L47.8135 5.7177C47.9441 5.54007 48.1099 5.39114 48.3004 5.28014C48.4909 5.16914 48.7022 5.09842 48.9212 5.07236C49.1401 5.04631 49.3621 5.06548 49.5733 5.12867C49.7846 5.19187 49.9806 5.29775 50.1493 5.43977C50.318 5.58179 50.4557 5.75692 50.554 5.95431C50.6523 6.15171 50.709 6.36718 50.7206 6.58737C50.7323 6.80757 50.6986 7.02781 50.6217 7.23447C50.5447 7.44112 50.4262 7.62979 50.2734 7.7888L26.8039 35.7701ZM9.64005 87.9771L3.88224 83.141L22.5242 60.9218L28.2842 65.7558L9.64005 87.9771ZM29.1199 62.256L25.8285 59.4931L38.9469 43.8589L42.2404 46.6197L29.1199 62.256ZM32.3791 34.1394L49.6418 13.5681L70.2131 30.8286L52.9504 51.4021L32.3791 34.1394Z" fill="#C4AF65"/>
<path d="M105.166 100.722H103.555V91.5907C103.555 91.1633 103.385 90.7535 103.083 90.4513C102.781 90.1491 102.371 89.9794 101.943 89.9794H58.9746C58.5473 89.9794 58.1374 90.1491 57.8352 90.4513C57.533 90.7535 57.3633 91.1633 57.3633 91.5907V100.722H55.752C54.4702 100.723 53.2414 101.232 52.3351 102.139C51.4288 103.045 50.9191 104.274 50.918 105.556V108.778C50.918 109.206 51.0877 109.615 51.3899 109.918C51.6921 110.22 52.1019 110.39 52.5293 110.39H108.389C108.816 110.39 109.226 110.22 109.528 109.918C109.83 109.615 110 109.206 110 108.778V105.556C109.998 104.274 109.488 103.045 108.582 102.139C107.676 101.233 106.448 100.723 105.166 100.722ZM60.5859 93.202H100.332V100.722H60.5859V93.202ZM106.777 107.167H54.1406V105.556C54.1406 105.128 54.3104 104.718 54.6126 104.416C54.9148 104.114 55.3246 103.944 55.752 103.944H105.166C105.593 103.945 106.003 104.115 106.305 104.417C106.607 104.719 106.777 105.128 106.777 105.556V107.167Z" fill="#C4AF65"/>
<path d="M98.3576 78.3542C98.4937 78.5163 98.6604 78.6501 98.8482 78.7478C99.036 78.8455 99.2412 78.9052 99.4521 78.9236C99.663 78.9419 99.8754 78.9185 100.077 78.8548C100.279 78.791 100.466 78.688 100.629 78.5519L107.153 73.0755C107.473 72.7987 107.672 72.4071 107.706 71.9852C107.739 71.5634 107.606 71.1452 107.334 70.821C107.062 70.4968 106.673 70.2927 106.252 70.2526C105.831 70.2125 105.41 70.3398 105.082 70.6069L98.5553 76.0833C98.2283 76.3585 98.0239 76.7521 97.9868 77.1779C97.9497 77.6036 98.0831 78.0267 98.3576 78.3542Z" fill="#C4AF65"/>
<path d="M94.918 75.8813C95.1027 75.954 95.2995 75.9912 95.4981 75.9909C95.8236 75.9913 96.1417 75.893 96.4102 75.7088C96.6787 75.5247 96.885 75.2635 97.002 74.9596L99.4318 68.6733C99.586 68.2744 99.5753 67.8307 99.4023 67.4397C99.2292 67.0486 98.908 66.7424 98.5091 66.5882C98.1102 66.4341 97.6665 66.4447 97.2755 66.6178C96.8844 66.7908 96.5782 67.1121 96.424 67.511L93.9941 73.7995C93.9179 73.9968 93.8814 74.2072 93.8866 74.4187C93.8918 74.6302 93.9386 74.8386 94.0244 75.0319C94.1102 75.2253 94.2333 75.3999 94.3866 75.5456C94.54 75.6913 94.7205 75.8054 94.918 75.8813Z" fill="#C4AF65"/>
<path d="M100.195 82.1698C100.266 82.5362 100.463 82.8663 100.751 83.1037C101.039 83.3412 101.4 83.4713 101.774 83.4718C101.878 83.4713 101.982 83.4612 102.085 83.4417L108.698 82.1419C108.906 82.1011 109.103 82.0199 109.28 81.9027C109.456 81.7856 109.607 81.6349 109.725 81.4592C109.843 81.2836 109.925 81.0864 109.967 80.879C110.009 80.6715 110.01 80.4579 109.969 80.2502C109.928 80.0426 109.847 79.845 109.73 79.6687C109.613 79.4925 109.462 79.341 109.286 79.223C109.111 79.105 108.913 79.0228 108.706 78.981C108.498 78.9392 108.285 78.9386 108.077 78.9794L101.464 80.2792C101.045 80.3618 100.676 80.6073 100.438 80.9618C100.2 81.3163 100.112 81.7508 100.195 82.1698Z" fill="#C4AF65"/>
</g>
<defs>
<clipPath id="clip0_7_460">
<rect width="110" height="110" fill="white" transform="translate(0 0.389526)"/>
</clipPath>
</defs>
</svg>
